solid
facet normal 0 0 -1
outer loop
vertex 38 57 0
vertex 0 62 0
vertex 195 62 0
endloop
endfacet
facet normal 0 0 -1
outer loop
vertex 38.8 56 0
vertex 38 56 0
vertex 38 57 0
endloop
endfacet
facet normal 0 0 -1
outer loop
vertex 38 47.5 0
vertex 38 52.5 0
vertex 38.8 52.5 0
endloop
endfacet
facet normal 0 0 -1
outer loop
vertex 38 43 0
vertex 38 44 0
vertex 38.8 44 0
endloop
endfacet
facet normal 0 0 -1
outer loop
vertex 23.2 44 0
vertex 24 44 0
vertex 24 43 0
endloop
endfacet
facet normal 0 0 -1
outer loop
vertex 24 52.5 0
vertex 24 47.5 0
vertex 23.2 47.5 0
endloop
endfacet
facet normal 0 0 -1
outer loop
vertex 24 57 0
vertex 24 56 0
vertex 23.2 56 0
endloop
endfacet
facet normal 0 0 -1
outer loop
vertex 0 62 0
vertex 38 57 0
vertex 24 57 0
endloop
endfacet
facet normal 0 0 -1
outer loop
vertex 19 28.5 0
vertex 19 33.5 0
vertex 19.8 33.5 0
endloop
endfacet
facet normal 0 0 -1
outer loop
vertex 19 24 0
vertex 19 25 0
vertex 19.8 25 0
endloop
endfacet
facet normal 0 0 -1
outer loop
vertex 80.75 19 0
vertex 5 24 0
vertex 19 24 0
endloop
endfacet
facet normal 0 0 -1
outer loop
vertex 81.55 18 0
vertex 80.75 18 0
vertex 80.75 19 0
endloop
endfacet
facet normal 0 0 -1
outer loop
vertex 80.75 9.5 0
vertex 80.75 14.5 0
vertex 81.55 14.5 0
endloop
endfacet
facet normal 0 0 -1
outer loop
vertex 80.75 5 0
vertex 80.75 6 0
vertex 81.55 6 0
endloop
endfacet
facet normal 0 0 -1
outer loop
vertex 118.2 47.5 0
vertex 118.2 44 0
vertex 80.75 5 0
endloop
endfacet
facet normal 0 0 -1
outer loop
vertex 119 52.5 0
vertex 119 47.5 0
vertex 118.2 47.5 0
endloop
endfacet
facet normal 0 0 -1
outer loop
vertex 119 57 0
vertex 119 56 0
vertex 118.2 56 0
endloop
endfacet
facet normal 0 0 -1
outer loop
vertex 76 43 0
vertex 76 44 0
vertex 76.8 44 0
endloop
endfacet
facet normal 0 0 -1
outer loop
vertex 61.2 44 0
vertex 62 44 0
vertex 62 43 0
endloop
endfacet
facet normal 0 0 -1
outer loop
vertex 62 52.5 0
vertex 62 47.5 0
vertex 61.2 47.5 0
endloop
endfacet
facet normal 0 0 -1
outer loop
vertex 62 57 0
vertex 62 56 0
vertex 61.2 56 0
endloop
endfacet
facet normal 0 0 -1
outer loop
vertex 57 47.5 0
vertex 57 52.5 0
vertex 57.8 52.5 0
endloop
endfacet
facet normal 0 0 -1
outer loop
vertex 57 43 0
vertex 57 44 0
vertex 57.8 44 0
endloop
endfacet
facet normal 0 0 -1
outer loop
vertex 42.2 44 0
vertex 43 44 0
vertex 43 43 0
endloop
endfacet
facet normal 0 0 -1
outer loop
vertex 43 52.5 0
vertex 43 47.5 0
vertex 42.2 47.5 0
endloop
endfacet
facet normal 0 0 -1
outer loop
vertex 43 57 0
vertex 43 56 0
vertex 42.2 56 0
endloop
endfacet
facet normal 0 0 -1
outer loop
vertex 57.8 56 0
vertex 57 56 0
vertex 57 57 0
endloop
endfacet
facet normal 0 0 -1
outer loop
vertex 62 57 0
vertex 57.8 52.5 0
vertex 57.8 56 0
endloop
endfacet
facet normal 0 0 -1
outer loop
vertex 76.8 56 0
vertex 76 56 0
vertex 76 57 0
endloop
endfacet
facet normal 0 0 -1
outer loop
vertex 76 47.5 0
vertex 76 52.5 0
vertex 76.8 52.5 0
endloop
endfacet
facet normal 0 0 -1
outer loop
vertex 119 57 0
vertex 76.8 44 0
vertex 76.8 47.5 0
endloop
endfacet
facet normal 0 0 -1
outer loop
vertex 133.8 56 0
vertex 133 56 0
vertex 133 57 0
endloop
endfacet
facet normal 0 0 -1
outer loop
vertex 133 47.5 0
vertex 133 52.5 0
vertex 133.8 52.5 0
endloop
endfacet
facet normal 0 0 -1
outer loop
vertex 133 43 0
vertex 133 44 0
vertex 133.8 44 0
endloop
endfacet
facet normal 0 0 -1
outer loop
vertex 118.2 44 0
vertex 119 44 0
vertex 119 43 0
endloop
endfacet
facet normal 0 0 -1
outer loop
vertex 138 44 0
vertex 138 43 0
vertex 80.75 5 0
endloop
endfacet
facet normal 0 0 -1
outer loop
vertex 138 52.5 0
vertex 138 47.5 0
vertex 137.2 47.5 0
endloop
endfacet
facet normal 0 0 -1
outer loop
vertex 138 57 0
vertex 138 56 0
vertex 137.2 56 0
endloop
endfacet
facet normal 0 0 -1
outer loop
vertex 152.8 56 0
vertex 152 56 0
vertex 152 57 0
endloop
endfacet
facet normal 0 0 -1
outer loop
vertex 152 47.5 0
vertex 152 52.5 0
vertex 152.8 52.5 0
endloop
endfacet
facet normal 0 0 -1
outer loop
vertex 152 43 0
vertex 152 44 0
vertex 152.8 44 0
endloop
endfacet
facet normal 0 0 -1
outer loop
vertex 80.75 5 0
vertex 138 43 0
vertex 152 43 0
endloop
endfacet
facet normal 0 0 -1
outer loop
vertex 157 44 0
vertex 157 43 0
vertex 80.75 5 0
endloop
endfacet
facet normal 0 0 -1
outer loop
vertex 157 52.5 0
vertex 157 47.5 0
vertex 156.2 47.5 0
endloop
endfacet
facet normal 0 0 -1
outer loop
vertex 157 57 0
vertex 157 56 0
vertex 156.2 56 0
endloop
endfacet
facet normal 0 0 -1
outer loop
vertex 171.8 56 0
vertex 171 56 0
vertex 171 57 0
endloop
endfacet
facet normal 0 0 -1
outer loop
vertex 171 47.5 0
vertex 171 52.5 0
vertex 171.8 52.5 0
endloop
endfacet
facet normal 0 0 -1
outer loop
vertex 171 43 0
vertex 171 44 0
vertex 171.8 44 0
endloop
endfacet
facet normal 0 0 -1
outer loop
vertex 80.75 5 0
vertex 157 43 0
vertex 171 43 0
endloop
endfacet
facet normal 0 0 -1
outer loop
vertex 129.05 18 0
vertex 128.25 18 0
vertex 128.25 19 0
endloop
endfacet
facet normal 0 0 -1
outer loop
vertex 128.25 9.5 0
vertex 128.25 14.5 0
vertex 129.05 14.5 0
endloop
endfacet
facet normal 0 0 -1
outer loop
vertex 128.25 5 0
vertex 128.25 6 0
vertex 129.05 6 0
endloop
endfacet
facet normal 0 0 -1
outer loop
vertex 190.8 37 0
vertex 190 37 0
vertex 190 38 0
endloop
endfacet
facet normal 0 0 -1
outer loop
vertex 190 28.5 0
vertex 190 33.5 0
vertex 190.8 33.5 0
endloop
endfacet
facet normal 0 0 -1
outer loop
vertex 190 24 0
vertex 190 25 0
vertex 190.8 25 0
endloop
endfacet
facet normal 0 0 -1
outer loop
vertex 175.2 25 0
vertex 176 25 0
vertex 176 24 0
endloop
endfacet
facet normal 0 0 -1
outer loop
vertex 176 33.5 0
vertex 176 28.5 0
vertex 175.2 28.5 0
endloop
endfacet
facet normal 0 0 -1
outer loop
vertex 176 38 0
vertex 176 37 0
vertex 175.2 37 0
endloop
endfacet
facet normal 0 0 -1
outer loop
vertex 113.45 6 0
vertex 114.25 6 0
vertex 114.25 5 0
endloop
endfacet
facet normal 0 0 -1
outer loop
vertex 114.25 14.5 0
vertex 114.25 9.5 0
vertex 113.45 9.5 0
endloop
endfacet
facet normal 0 0 -1
outer loop
vertex 114.25 19 0
vertex 114.25 18 0
vertex 113.45 18 0
endloop
endfacet
facet normal 0 0 -1
outer loop
vertex 65.95 6 0
vertex 66.75 6 0
vertex 66.75 5 0
endloop
endfacet
facet normal 0 0 -1
outer loop
vertex 66.75 14.5 0
vertex 66.75 9.5 0
vertex 65.95 9.5 0
endloop
endfacet
facet normal 0 0 -1
outer loop
vertex 66.75 19 0
vertex 66.75 18 0
vertex 65.95 18 0
endloop
endfacet
facet normal 0 0 -1
outer loop
vertex 5 24 0
vertex 80.75 19 0
vertex 66.75 19 0
endloop
endfacet
facet normal 0 0 -1
outer loop
vertex 4.2 25 0
vertex 5 25 0
vertex 5 24 0
endloop
endfacet
facet normal 0 0 -1
outer loop
vertex 5 33.5 0
vertex 5 28.5 0
vertex 4.2 28.5 0
endloop
endfacet
facet normal 0 0 -1
outer loop
vertex 5 38 0
vertex 5 37 0
vertex 4.2 37 0
endloop
endfacet
facet normal 0 0 -1
outer loop
vertex 19.8 37 0
vertex 19 37 0
vertex 19 38 0
endloop
endfacet
facet normal 0 0 -1
outer loop
vertex 38.8 47.5 0
vertex 38 47.5 0
vertex 38.8 52.5 0
endloop
endfacet
facet normal 0 0 -1
outer loop
vertex 23.2 52.5 0
vertex 24 52.5 0
vertex 23.2 47.5 0
endloop
endfacet
facet normal 0 0 -1
outer loop
vertex 0 62 0
vertex 24 57 0
vertex 23.2 56 0
endloop
endfacet
facet normal 0 0 -1
outer loop
vertex 19.8 28.5 0
vertex 19 28.5 0
vertex 19.8 33.5 0
endloop
endfacet
facet normal 0 0 -1
outer loop
vertex 80.75 19 0
vertex 19 24 0
vertex 19.8 25 0
endloop
endfacet
facet normal 0 0 -1
outer loop
vertex 81.55 9.5 0
vertex 80.75 9.5 0
vertex 81.55 14.5 0
endloop
endfacet
facet normal 0 0 -1
outer loop
vertex 118.2 47.5 0
vertex 80.75 5 0
vertex 81.55 6 0
endloop
endfacet
facet normal 0 0 -1
outer loop
vertex 118.2 52.5 0
vertex 119 52.5 0
vertex 118.2 47.5 0
endloop
endfacet
facet normal 0 0 -0.9999999999999999
outer loop
vertex 76.8 44 0
vertex 119 57 0
vertex 118.2 56 0
endloop
endfacet
facet normal 0 0 -1
outer loop
vertex 61.2 52.5 0
vertex 62 52.5 0
vertex 61.2 47.5 0
endloop
endfacet
facet normal 0 0 -1
outer loop
vertex 57.8 52.5 0
vertex 62 57 0
vertex 61.2 56 0
endloop
endfacet
facet normal 0 0 -1
outer loop
vertex 57.8 47.5 0
vertex 57 47.5 0
vertex 57.8 52.5 0
endloop
endfacet
facet normal 0 0 -1
outer loop
vertex 42.2 52.5 0
vertex 43 52.5 0
vertex 42.2 47.5 0
endloop
endfacet
facet normal 0 0 -1
outer loop
vertex 62 57 0
vertex 57.8 56 0
vertex 57 57 0
endloop
endfacet
facet normal 0 0 -1
outer loop
vertex 76.8 47.5 0
vertex 76 47.5 0
vertex 76.8 52.5 0
endloop
endfacet
facet normal 0 0 -1
outer loop
vertex 133.8 47.5 0
vertex 133 47.5 0
vertex 133.8 52.5 0
endloop
endfacet
facet normal 0 0 -1
outer loop
vertex 80.75 5 0
vertex 118.2 44 0
vertex 119 43 0
endloop
endfacet
facet normal 0 0 -1
outer loop
vertex 137.2 44 0
vertex 138 44 0
vertex 80.75 5 0
endloop
endfacet
facet normal 0 0 -1
outer loop
vertex 137.2 52.5 0
vertex 138 52.5 0
vertex 137.2 47.5 0
endloop
endfacet
facet normal 0 0 -1
outer loop
vertex 152.8 47.5 0
vertex 152 47.5 0
vertex 152.8 52.5 0
endloop
endfacet
facet normal 0 0 -1
outer loop
vertex 157 44 0
vertex 80.75 5 0
vertex 152 43 0
endloop
endfacet
facet normal 0 0 -1
outer loop
vertex 156.2 52.5 0
vertex 157 52.5 0
vertex 156.2 47.5 0
endloop
endfacet
facet normal 0 0 -1
outer loop
vertex 171.8 47.5 0
vertex 171 47.5 0
vertex 171.8 52.5 0
endloop
endfacet
facet normal 0 0 -1
outer loop
vertex 114.25 19 0
vertex 80.75 5 0
vertex 171 43 0
endloop
endfacet
facet normal 0 0 -1
outer loop
vertex 129.05 9.5 0
vertex 128.25 9.5 0
vertex 129.05 14.5 0
endloop
endfacet
facet normal 0 0 -1
outer loop
vertex 176 38 0
vertex 128.25 5 0
vertex 129.05 6 0
endloop
endfacet
facet normal 0 0 -1
outer loop
vertex 190.8 28.5 0
vertex 190 28.5 0
vertex 190.8 33.5 0
endloop
endfacet
facet normal 0 0 -1
outer loop
vertex 175.2 33.5 0
vertex 176 33.5 0
vertex 175.2 28.5 0
endloop
endfacet
facet normal 0 0 -1
outer loop
vertex 128.25 5 0
vertex 176 38 0
vertex 175.2 37 0
endloop
endfacet
facet normal 0 0 -1
outer loop
vertex 113.45 14.5 0
vertex 114.25 14.5 0
vertex 113.45 9.5 0
endloop
endfacet
facet normal 0 0 -1
outer loop
vertex 80.75 5 0
vertex 114.25 19 0
vertex 113.45 18 0
endloop
endfacet
facet normal 0 0 -1
outer loop
vertex 65.95 14.5 0
vertex 66.75 14.5 0
vertex 65.95 9.5 0
endloop
endfacet
facet normal 0 0 -1
outer loop
vertex 5 24 0
vertex 66.75 19 0
vertex 65.95 18 0
endloop
endfacet
facet normal 0 0 -1
outer loop
vertex 4.2 33.5 0
vertex 5 33.5 0
vertex 4.2 28.5 0
endloop
endfacet
facet normal 0 0 -1
outer loop
vertex 0 62 0
vertex 19.8 37 0
vertex 19 38 0
endloop
endfacet
facet normal 0 0 -0.9999999999999999
outer loop
vertex 0 62 0
vertex 23.2 56 0
vertex 23.2 52.5 0
endloop
endfacet
facet normal 0 0 -1
outer loop
vertex 80.75 19 0
vertex 19.8 25 0
vertex 19.8 28.5 0
endloop
endfacet
facet normal 0 0 -1
outer loop
vertex 118.2 47.5 0
vertex 81.55 6 0
vertex 81.55 9.5 0
endloop
endfacet
facet normal 0 0 -1
outer loop
vertex 76.8 44 0
vertex 118.2 56 0
vertex 118.2 52.5 0
endloop
endfacet
facet normal 0 0 -0.9999999999999999
outer loop
vertex 57.8 52.5 0
vertex 61.2 56 0
vertex 61.2 52.5 0
endloop
endfacet
facet normal 0 0 -1
outer loop
vertex 119 57 0
vertex 76.8 47.5 0
vertex 76.8 52.5 0
endloop
endfacet
facet normal 0 0 -1
outer loop
vertex 80.75 5 0
vertex 119 43 0
vertex 133 43 0
endloop
endfacet
facet normal 0 0 -1
outer loop
vertex 156.2 44 0
vertex 157 44 0
vertex 152 43 0
endloop
endfacet
facet normal 0 0 -1
outer loop
vertex 128.25 19 0
vertex 114.25 19 0
vertex 171 43 0
endloop
endfacet
facet normal 0 0 -1
outer loop
vertex 176 38 0
vertex 129.05 6 0
vertex 129.05 9.5 0
endloop
endfacet
facet normal 0 0 -1
outer loop
vertex 128.25 5 0
vertex 175.2 37 0
vertex 175.2 33.5 0
endloop
endfacet
facet normal 0 0 -1
outer loop
vertex 80.75 5 0
vertex 113.45 18 0
vertex 113.45 14.5 0
endloop
endfacet
facet normal 0 0 -1
outer loop
vertex 5 24 0
vertex 65.95 18 0
vertex 65.95 14.5 0
endloop
endfacet
facet normal 0 0 -1
outer loop
vertex 0 62 0
vertex 19 38 0
vertex 5 38 0
endloop
endfacet
facet normal 0 0 -1
outer loop
vertex 0 62 0
vertex 23.2 52.5 0
vertex 23.2 47.5 0
endloop
endfacet
facet normal 0 0 -1
outer loop
vertex 80.75 19 0
vertex 19.8 28.5 0
vertex 19.8 33.5 0
endloop
endfacet
facet normal 0 0 -1
outer loop
vertex 118.2 47.5 0
vertex 81.55 9.5 0
vertex 81.55 14.5 0
endloop
endfacet
facet normal 0 0 -1
outer loop
vertex 76.8 44 0
vertex 118.2 52.5 0
vertex 118.2 47.5 0
endloop
endfacet
facet normal 0 0 -1
outer loop
vertex 57.8 52.5 0
vertex 61.2 52.5 0
vertex 61.2 47.5 0
endloop
endfacet
facet normal 0 0 -1
outer loop
vertex 119 57 0
vertex 76.8 52.5 0
vertex 76.8 56 0
endloop
endfacet
facet normal 0 0 -1
outer loop
vertex 137.2 44 0
vertex 80.75 5 0
vertex 133 43 0
endloop
endfacet
facet normal 0 0 -1
outer loop
vertex 156.2 44 0
vertex 152 43 0
vertex 152.8 44 0
endloop
endfacet
facet normal 0 0 -1
outer loop
vertex 129.05 18 0
vertex 128.25 19 0
vertex 171 43 0
endloop
endfacet
facet normal 0 0 -1
outer loop
vertex 176 38 0
vertex 129.05 9.5 0
vertex 129.05 14.5 0
endloop
endfacet
facet normal 0 0 -1
outer loop
vertex 128.25 5 0
vertex 175.2 33.5 0
vertex 175.2 28.5 0
endloop
endfacet
facet normal 0 0 -1
outer loop
vertex 80.75 5 0
vertex 113.45 14.5 0
vertex 113.45 9.5 0
endloop
endfacet
facet normal 0 0 -1
outer loop
vertex 5 24 0
vertex 65.95 14.5 0
vertex 65.95 9.5 0
endloop
endfacet
facet normal 0 0 -1
outer loop
vertex 0 62 0
vertex 5 38 0
vertex 4.2 37 0
endloop
endfacet
facet normal 0 0 -0.9999999999999999
outer loop
vertex 0 62 0
vertex 23.2 47.5 0
vertex 23.2 44 0
endloop
endfacet
facet normal 0 0 -1
outer loop
vertex 80.75 19 0
vertex 19.8 33.5 0
vertex 19.8 37 0
endloop
endfacet
facet normal 0 0 -1
outer loop
vertex 118.2 47.5 0
vertex 81.55 14.5 0
vertex 81.55 18 0
endloop
endfacet
facet normal 0 0 -0.9999999999999999
outer loop
vertex 76 43 0
vertex 76.8 44 0
vertex 118.2 47.5 0
endloop
endfacet
facet normal 0 0 -0.9999999999999999
outer loop
vertex 57.8 52.5 0
vertex 61.2 47.5 0
vertex 61.2 44 0
endloop
endfacet
facet normal 0 0 -1
outer loop
vertex 119 57 0
vertex 76.8 56 0
vertex 76 57 0
endloop
endfacet
facet normal 0 0 -1
outer loop
vertex 137.2 44 0
vertex 133 43 0
vertex 133.8 44 0
endloop
endfacet
facet normal 0 0 -1
outer loop
vertex 156.2 44 0
vertex 152.8 44 0
vertex 152.8 47.5 0
endloop
endfacet
facet normal 0 0 -1
outer loop
vertex 129.05 14.5 0
vertex 129.05 18 0
vertex 171 43 0
endloop
endfacet
facet normal 0 0 -1
outer loop
vertex 128.25 5 0
vertex 175.2 28.5 0
vertex 175.2 25 0
endloop
endfacet
facet normal 0 0 -1
outer loop
vertex 80.75 5 0
vertex 113.45 9.5 0
vertex 113.45 6 0
endloop
endfacet
facet normal 0 0 -1
outer loop
vertex 5 24 0
vertex 65.95 9.5 0
vertex 65.95 6 0
endloop
endfacet
facet normal 0 0 -1
outer loop
vertex 0 62 0
vertex 4.2 37 0
vertex 4.2 33.5 0
endloop
endfacet
facet normal 0 0 -1
outer loop
vertex 0 62 0
vertex 23.2 44 0
vertex 24 43 0
endloop
endfacet
facet normal 0 0 -1
outer loop
vertex 118.2 47.5 0
vertex 81.55 18 0
vertex 80.75 19 0
endloop
endfacet
facet normal 0 0 -1
outer loop
vertex 57.8 47.5 0
vertex 57.8 52.5 0
vertex 61.2 44 0
endloop
endfacet
facet normal 0 0 -1
outer loop
vertex 137.2 44 0
vertex 133.8 44 0
vertex 133.8 47.5 0
endloop
endfacet
facet normal 0 0 -1
outer loop
vertex 156.2 44 0
vertex 152.8 47.5 0
vertex 152.8 52.5 0
endloop
endfacet
facet normal 0 0 -1
outer loop
vertex 176 38 0
vertex 129.05 14.5 0
vertex 171 43 0
endloop
endfacet
facet normal 0 0 -0.9999999999999999
outer loop
vertex 128.25 5 0
vertex 175.2 25 0
vertex 176 24 0
endloop
endfacet
facet normal 0 0 -1
outer loop
vertex 80.75 5 0
vertex 113.45 6 0
vertex 114.25 5 0
endloop
endfacet
facet normal 0 0 -1
outer loop
vertex 5 24 0
vertex 65.95 6 0
vertex 66.75 5 0
endloop
endfacet
facet normal 0 0 -1
outer loop
vertex 0 62 0
vertex 4.2 33.5 0
vertex 4.2 28.5 0
endloop
endfacet
facet normal 0 0 -1
outer loop
vertex 19.8 37 0
vertex 0 62 0
vertex 24 43 0
endloop
endfacet
facet normal 0 0 -1
outer loop
vertex 118.2 47.5 0
vertex 80.75 19 0
vertex 19.8 37 0
endloop
endfacet
facet normal 0 0 -1
outer loop
vertex 57.8 47.5 0
vertex 61.2 44 0
vertex 62 43 0
endloop
endfacet
facet normal 0 0 -1
outer loop
vertex 137.2 44 0
vertex 133.8 47.5 0
vertex 133.8 52.5 0
endloop
endfacet
facet normal 0 0 -1
outer loop
vertex 156.2 44 0
vertex 152.8 52.5 0
vertex 152.8 56 0
endloop
endfacet
facet normal 0 0 -1
outer loop
vertex 176 38 0
vertex 171 43 0
vertex 171.8 44 0
endloop
endfacet
facet normal 0 0 -1
outer loop
vertex 128.25 5 0
vertex 176 24 0
vertex 190 24 0
endloop
endfacet
facet normal 0 0 -1
outer loop
vertex 0 62 0
vertex 4.2 28.5 0
vertex 4.2 25 0
endloop
endfacet
facet normal 0 0 -1
outer loop
vertex 19.8 37 0
vertex 24 43 0
vertex 38 43 0
endloop
endfacet
facet normal 0 0 -1
outer loop
vertex 76 43 0
vertex 118.2 47.5 0
vertex 19.8 37 0
endloop
endfacet
facet normal 0 0 -1
outer loop
vertex 57.8 44 0
vertex 57.8 47.5 0
vertex 62 43 0
endloop
endfacet
facet normal 0 0 -1
outer loop
vertex 137.2 44 0
vertex 133.8 52.5 0
vertex 133.8 56 0
endloop
endfacet
facet normal 0 0 -1
outer loop
vertex 156.2 47.5 0
vertex 156.2 44 0
vertex 152.8 56 0
endloop
endfacet
facet normal 0 0 -1
outer loop
vertex 176 38 0
vertex 171.8 44 0
vertex 171.8 47.5 0
endloop
endfacet
facet normal 0 0 -1
outer loop
vertex 0 0 0
vertex 0 62 0
vertex 4.2 25 0
endloop
endfacet
facet normal 0 0 -1
outer loop
vertex 62 43 0
vertex 76 43 0
vertex 19.8 37 0
endloop
endfacet
facet normal 0 0 -1
outer loop
vertex 57 43 0
vertex 57.8 44 0
vertex 62 43 0
endloop
endfacet
facet normal 0 0 -1
outer loop
vertex 137.2 47.5 0
vertex 137.2 44 0
vertex 133.8 56 0
endloop
endfacet
facet normal 0 0 -1
outer loop
vertex 156.2 52.5 0
vertex 156.2 47.5 0
vertex 152.8 56 0
endloop
endfacet
facet normal 0 0 -1
outer loop
vertex 176 38 0
vertex 171.8 47.5 0
vertex 171.8 52.5 0
endloop
endfacet
facet normal 0 0 -1
outer loop
vertex 0 0 0
vertex 4.2 25 0
vertex 5 24 0
endloop
endfacet
facet normal 0 0 -1
outer loop
vertex 57 43 0
vertex 62 43 0
vertex 19.8 37 0
endloop
endfacet
facet normal 0 0 -1
outer loop
vertex 137.2 52.5 0
vertex 137.2 47.5 0
vertex 133.8 56 0
endloop
endfacet
facet normal 0 0 -1
outer loop
vertex 156.2 52.5 0
vertex 152.8 56 0
vertex 152 57 0
endloop
endfacet
facet normal 0 0 -1
outer loop
vertex 176 38 0
vertex 171.8 52.5 0
vertex 171.8 56 0
endloop
endfacet
facet normal 0 0 -1
outer loop
vertex 0 0 0
vertex 5 24 0
vertex 66.75 5 0
endloop
endfacet
facet normal 0 0 -1
outer loop
vertex 43 43 0
vertex 57 43 0
vertex 19.8 37 0
endloop
endfacet
facet normal 0 0 -1
outer loop
vertex 137.2 52.5 0
vertex 133.8 56 0
vertex 133 57 0
endloop
endfacet
facet normal 0 0 -1
outer loop
vertex 156.2 56 0
vertex 156.2 52.5 0
vertex 152 57 0
endloop
endfacet
facet normal 0 0 -1
outer loop
vertex 190 38 0
vertex 176 38 0
vertex 171.8 56 0
endloop
endfacet
facet normal 0 0 -1
outer loop
vertex 0 0 0
vertex 66.75 5 0
vertex 80.75 5 0
endloop
endfacet
facet normal 0 0 -1
outer loop
vertex 43 43 0
vertex 19.8 37 0
vertex 38 43 0
endloop
endfacet
facet normal 0 0 -1
outer loop
vertex 137.2 56 0
vertex 137.2 52.5 0
vertex 133 57 0
endloop
endfacet
facet normal 0 0 -1
outer loop
vertex 157 57 0
vertex 156.2 56 0
vertex 152 57 0
endloop
endfacet
facet normal 0 0 -1
outer loop
vertex 190 38 0
vertex 171.8 56 0
vertex 171 57 0
endloop
endfacet
facet normal 0 0 -1
outer loop
vertex 0 0 0
vertex 80.75 5 0
vertex 114.25 5 0
endloop
endfacet
facet normal 0 0 -1
outer loop
vertex 43 43 0
vertex 38 43 0
vertex 38.8 44 0
endloop
endfacet
facet normal 0 0 -1
outer loop
vertex 138 57 0
vertex 137.2 56 0
vertex 133 57 0
endloop
endfacet
facet normal 0 0 -1
outer loop
vertex 0 0 0
vertex 114.25 5 0
vertex 128.25 5 0
endloop
endfacet
facet normal 0 0 -1
outer loop
vertex 43 43 0
vertex 38.8 44 0
vertex 38.8 47.5 0
endloop
endfacet
facet normal 0 0 -1
outer loop
vertex 195 0 0
vertex 0 0 0
vertex 128.25 5 0
endloop
endfacet
facet normal 0 0 -1
outer loop
vertex 42.2 44 0
vertex 43 43 0
vertex 38.8 47.5 0
endloop
endfacet
facet normal 0 0 -1
outer loop
vertex 195 0 0
vertex 128.25 5 0
vertex 190 24 0
endloop
endfacet
facet normal 0 0 -1
outer loop
vertex 42.2 44 0
vertex 38.8 47.5 0
vertex 38.8 52.5 0
endloop
endfacet
facet normal 0 0 -1
outer loop
vertex 195 0 0
vertex 190 24 0
vertex 190.8 25 0
endloop
endfacet
facet normal 0 0 -0.9999999999999999
outer loop
vertex 42.2 44 0
vertex 38.8 52.5 0
vertex 38.8 56 0
endloop
endfacet
facet normal 0 0 -1
outer loop
vertex 195 0 0
vertex 190.8 25 0
vertex 190.8 28.5 0
endloop
endfacet
facet normal 0 0 -0.9999999999999999
outer loop
vertex 42.2 47.5 0
vertex 42.2 44 0
vertex 38.8 56 0
endloop
endfacet
facet normal 0 0 -1
outer loop
vertex 195 0 0
vertex 190.8 28.5 0
vertex 190.8 33.5 0
endloop
endfacet
facet normal 0 0 -1
outer loop
vertex 42.2 52.5 0
vertex 42.2 47.5 0
vertex 38.8 56 0
endloop
endfacet
facet normal 0 0 -1
outer loop
vertex 195 0 0
vertex 190.8 33.5 0
vertex 190.8 37 0
endloop
endfacet
facet normal 0 0 -1
outer loop
vertex 42.2 52.5 0
vertex 38.8 56 0
vertex 38 57 0
endloop
endfacet
facet normal 0 0 -1
outer loop
vertex 195 62 0
vertex 195 0 0
vertex 190.8 37 0
endloop
endfacet
facet normal 0 0 -1
outer loop
vertex 42.2 56 0
vertex 42.2 52.5 0
vertex 38 57 0
endloop
endfacet
facet normal 0 0 -1
outer loop
vertex 195 62 0
vertex 190.8 37 0
vertex 190 38 0
endloop
endfacet
facet normal 0 0 -1
outer loop
vertex 43 57 0
vertex 42.2 56 0
vertex 38 57 0
endloop
endfacet
facet normal 0 0 -1
outer loop
vertex 195 62 0
vertex 190 38 0
vertex 171 57 0
endloop
endfacet
facet normal 0 0 -1
outer loop
vertex 43 57 0
vertex 38 57 0
vertex 195 62 0
endloop
endfacet
facet normal 0 0 -1
outer loop
vertex 195 62 0
vertex 171 57 0
vertex 157 57 0
endloop
endfacet
facet normal 0 0 -1
outer loop
vertex 57 57 0
vertex 43 57 0
vertex 195 62 0
endloop
endfacet
facet normal 0 0 -1
outer loop
vertex 195 62 0
vertex 157 57 0
vertex 152 57 0
endloop
endfacet
facet normal 0 0 -1
outer loop
vertex 62 57 0
vertex 57 57 0
vertex 195 62 0
endloop
endfacet
facet normal 0 0 -1
outer loop
vertex 195 62 0
vertex 152 57 0
vertex 138 57 0
endloop
endfacet
facet normal 0 0 -1
outer loop
vertex 76 57 0
vertex 62 57 0
vertex 195 62 0
endloop
endfacet
facet normal 0 0 -1
outer loop
vertex 195 62 0
vertex 138 57 0
vertex 133 57 0
endloop
endfacet
facet normal 0 0 -1
outer loop
vertex 119 57 0
vertex 76 57 0
vertex 195 62 0
endloop
endfacet
facet normal 0 0 -1
outer loop
vertex 195 62 0
vertex 133 57 0
vertex 119 57 0
endloop
endfacet
facet normal 0 0 1
outer loop
vertex 195 62 1.5
vertex 0 62 1.5
vertex 38 57 1.5
endloop
endfacet
facet normal 0 0 1
outer loop
vertex 38 57 1.5
vertex 38 56 1.5
vertex 38.8 56 1.5
endloop
endfacet
facet normal 0 0 1
outer loop
vertex 38.8 52.5 1.5
vertex 38 52.5 1.5
vertex 38 47.5 1.5
endloop
endfacet
facet normal 0 0 1
outer loop
vertex 38.8 44 1.5
vertex 38 44 1.5
vertex 38 43 1.5
endloop
endfacet
facet normal 0 0 1
outer loop
vertex 24 43 1.5
vertex 24 44 1.5
vertex 23.2 44 1.5
endloop
endfacet
facet normal 0 0 1
outer loop
vertex 23.2 47.5 1.5
vertex 24 47.5 1.5
vertex 24 52.5 1.5
endloop
endfacet
facet normal 0 0 1
outer loop
vertex 23.2 56 1.5
vertex 24 56 1.5
vertex 24 57 1.5
endloop
endfacet
facet normal 0 0 1
outer loop
vertex 24 57 1.5
vertex 38 57 1.5
vertex 0 62 1.5
endloop
endfacet
facet normal 0 0 1
outer loop
vertex 19.8 33.5 1.5
vertex 19 33.5 1.5
vertex 19 28.5 1.5
endloop
endfacet
facet normal 0 0 1
outer loop
vertex 19.8 25 1.5
vertex 19 25 1.5
vertex 19 24 1.5
endloop
endfacet
facet normal 0 0 1
outer loop
vertex 19 24 1.5
vertex 5 24 1.5
vertex 80.75 19 1.5
endloop
endfacet
facet normal 0 0 1
outer loop
vertex 80.75 19 1.5
vertex 80.75 18 1.5
vertex 81.55 18 1.5
endloop
endfacet
facet normal 0 0 1
outer loop
vertex 81.55 14.5 1.5
vertex 80.75 14.5 1.5
vertex 80.75 9.5 1.5
endloop
endfacet
facet normal 0 0 1
outer loop
vertex 81.55 6 1.5
vertex 80.75 6 1.5
vertex 80.75 5 1.5
endloop
endfacet
facet normal 0 0 1
outer loop
vertex 80.75 5 1.5
vertex 118.2 44 1.5
vertex 118.2 47.5 1.5
endloop
endfacet
facet normal 0 0 1
outer loop
vertex 118.2 47.5 1.5
vertex 119 47.5 1.5
vertex 119 52.5 1.5
endloop
endfacet
facet normal 0 0 1
outer loop
vertex 118.2 56 1.5
vertex 119 56 1.5
vertex 119 57 1.5
endloop
endfacet
facet normal 0 0 1
outer loop
vertex 76.8 44 1.5
vertex 76 44 1.5
vertex 76 43 1.5
endloop
endfacet
facet normal 0 0 1
outer loop
vertex 62 43 1.5
vertex 62 44 1.5
vertex 61.2 44 1.5
endloop
endfacet
facet normal 0 0 1
outer loop
vertex 61.2 47.5 1.5
vertex 62 47.5 1.5
vertex 62 52.5 1.5
endloop
endfacet
facet normal 0 0 1
outer loop
vertex 61.2 56 1.5
vertex 62 56 1.5
vertex 62 57 1.5
endloop
endfacet
facet normal 0 0 1
outer loop
vertex 57.8 52.5 1.5
vertex 57 52.5 1.5
vertex 57 47.5 1.5
endloop
endfacet
facet normal 0 0 1
outer loop
vertex 57.8 44 1.5
vertex 57 44 1.5
vertex 57 43 1.5
endloop
endfacet
facet normal 0 0 1
outer loop
vertex 43 43 1.5
vertex 43 44 1.5
vertex 42.2 44 1.5
endloop
endfacet
facet normal 0 0 1
outer loop
vertex 42.2 47.5 1.5
vertex 43 47.5 1.5
vertex 43 52.5 1.5
endloop
endfacet
facet normal 0 0 1
outer loop
vertex 42.2 56 1.5
vertex 43 56 1.5
vertex 43 57 1.5
endloop
endfacet
facet normal 0 0 1
outer loop
vertex 57 57 1.5
vertex 57 56 1.5
vertex 57.8 56 1.5
endloop
endfacet
facet normal 0 0 1
outer loop
vertex 57.8 56 1.5
vertex 57.8 52.5 1.5
vertex 62 57 1.5
endloop
endfacet
facet normal 0 0 1
outer loop
vertex 76 57 1.5
vertex 76 56 1.5
vertex 76.8 56 1.5
endloop
endfacet
facet normal 0 0 1
outer loop
vertex 76.8 52.5 1.5
vertex 76 52.5 1.5
vertex 76 47.5 1.5
endloop
endfacet
facet normal 0 0 1
outer loop
vertex 76.8 47.5 1.5
vertex 76.8 44 1.5
vertex 119 57 1.5
endloop
endfacet
facet normal 0 0 1
outer loop
vertex 133 57 1.5
vertex 133 56 1.5
vertex 133.8 56 1.5
endloop
endfacet
facet normal 0 0 1
outer loop
vertex 133.8 52.5 1.5
vertex 133 52.5 1.5
vertex 133 47.5 1.5
endloop
endfacet
facet normal 0 0 1
outer loop
vertex 133.8 44 1.5
vertex 133 44 1.5
vertex 133 43 1.5
endloop
endfacet
facet normal 0 0 1
outer loop
vertex 119 43 1.5
vertex 119 44 1.5
vertex 118.2 44 1.5
endloop
endfacet
facet normal 0 0 1
outer loop
vertex 80.75 5 1.5
vertex 138 43 1.5
vertex 138 44 1.5
endloop
endfacet
facet normal 0 0 1
outer loop
vertex 137.2 47.5 1.5
vertex 138 47.5 1.5
vertex 138 52.5 1.5
endloop
endfacet
facet normal 0 0 1
outer loop
vertex 137.2 56 1.5
vertex 138 56 1.5
vertex 138 57 1.5
endloop
endfacet
facet normal 0 0 1
outer loop
vertex 152 57 1.5
vertex 152 56 1.5
vertex 152.8 56 1.5
endloop
endfacet
facet normal 0 0 1
outer loop
vertex 152.8 52.5 1.5
vertex 152 52.5 1.5
vertex 152 47.5 1.5
endloop
endfacet
facet normal 0 0 1
outer loop
vertex 152.8 44 1.5
vertex 152 44 1.5
vertex 152 43 1.5
endloop
endfacet
facet normal 0 0 1
outer loop
vertex 152 43 1.5
vertex 138 43 1.5
vertex 80.75 5 1.5
endloop
endfacet
facet normal 0 0 1
outer loop
vertex 80.75 5 1.5
vertex 157 43 1.5
vertex 157 44 1.5
endloop
endfacet
facet normal 0 0 1
outer loop
vertex 156.2 47.5 1.5
vertex 157 47.5 1.5
vertex 157 52.5 1.5
endloop
endfacet
facet normal 0 0 1
outer loop
vertex 156.2 56 1.5
vertex 157 56 1.5
vertex 157 57 1.5
endloop
endfacet
facet normal 0 0 1
outer loop
vertex 171 57 1.5
vertex 171 56 1.5
vertex 171.8 56 1.5
endloop
endfacet
facet normal 0 0 1
outer loop
vertex 171.8 52.5 1.5
vertex 171 52.5 1.5
vertex 171 47.5 1.5
endloop
endfacet
facet normal 0 0 1
outer loop
vertex 171.8 44 1.5
vertex 171 44 1.5
vertex 171 43 1.5
endloop
endfacet
facet normal 0 0 1
outer loop
vertex 171 43 1.5
vertex 157 43 1.5
vertex 80.75 5 1.5
endloop
endfacet
facet normal 0 0 1
outer loop
vertex 128.25 19 1.5
vertex 128.25 18 1.5
vertex 129.05 18 1.5
endloop
endfacet
facet normal 0 0 1
outer loop
vertex 129.05 14.5 1.5
vertex 128.25 14.5 1.5
vertex 128.25 9.5 1.5
endloop
endfacet
facet normal 0 0 1
outer loop
vertex 129.05 6 1.5
vertex 128.25 6 1.5
vertex 128.25 5 1.5
endloop
endfacet
facet normal 0 0 1
outer loop
vertex 190 38 1.5
vertex 190 37 1.5
vertex 190.8 37 1.5
endloop
endfacet
facet normal 0 0 1
outer loop
vertex 190.8 33.5 1.5
vertex 190 33.5 1.5
vertex 190 28.5 1.5
endloop
endfacet
facet normal 0 0 1
outer loop
vertex 190.8 25 1.5
vertex 190 25 1.5
vertex 190 24 1.5
endloop
endfacet
facet normal 0 0 1
outer loop
vertex 176 24 1.5
vertex 176 25 1.5
vertex 175.2 25 1.5
endloop
endfacet
facet normal 0 0 1
outer loop
vertex 175.2 28.5 1.5
vertex 176 28.5 1.5
vertex 176 33.5 1.5
endloop
endfacet
facet normal 0 0 1
outer loop
vertex 175.2 37 1.5
vertex 176 37 1.5
vertex 176 38 1.5
endloop
endfacet
facet normal 0 0 1
outer loop
vertex 114.25 5 1.5
vertex 114.25 6 1.5
vertex 113.45 6 1.5
endloop
endfacet
facet normal 0 0 1
outer loop
vertex 113.45 9.5 1.5
vertex 114.25 9.5 1.5
vertex 114.25 14.5 1.5
endloop
endfacet
facet normal 0 0 1
outer loop
vertex 113.45 18 1.5
vertex 114.25 18 1.5
vertex 114.25 19 1.5
endloop
endfacet
facet normal 0 0 1
outer loop
vertex 66.75 5 1.5
vertex 66.75 6 1.5
vertex 65.95 6 1.5
endloop
endfacet
facet normal 0 0 1
outer loop
vertex 65.95 9.5 1.5
vertex 66.75 9.5 1.5
vertex 66.75 14.5 1.5
endloop
endfacet
facet normal 0 0 1
outer loop
vertex 65.95 18 1.5
vertex 66.75 18 1.5
vertex 66.75 19 1.5
endloop
endfacet
facet normal 0 0 1
outer loop
vertex 66.75 19 1.5
vertex 80.75 19 1.5
vertex 5 24 1.5
endloop
endfacet
facet normal 0 0 1
outer loop
vertex 5 24 1.5
vertex 5 25 1.5
vertex 4.2 25 1.5
endloop
endfacet
facet normal 0 0 1
outer loop
vertex 4.2 28.5 1.5
vertex 5 28.5 1.5
vertex 5 33.5 1.5
endloop
endfacet
facet normal 0 0 1
outer loop
vertex 4.2 37 1.5
vertex 5 37 1.5
vertex 5 38 1.5
endloop
endfacet
facet normal 0 0 1
outer loop
vertex 19 38 1.5
vertex 19 37 1.5
vertex 19.8 37 1.5
endloop
endfacet
facet normal 0 0 1
outer loop
vertex 38.8 52.5 1.5
vertex 38 47.5 1.5
vertex 38.8 47.5 1.5
endloop
endfacet
facet normal 0 0 1
outer loop
vertex 23.2 47.5 1.5
vertex 24 52.5 1.5
vertex 23.2 52.5 1.5
endloop
endfacet
facet normal 0 0 1
outer loop
vertex 23.2 56 1.5
vertex 24 57 1.5
vertex 0 62 1.5
endloop
endfacet
facet normal 0 0 1
outer loop
vertex 19.8 33.5 1.5
vertex 19 28.5 1.5
vertex 19.8 28.5 1.5
endloop
endfacet
facet normal 0 0 1
outer loop
vertex 19.8 25 1.5
vertex 19 24 1.5
vertex 80.75 19 1.5
endloop
endfacet
facet normal 0 0 1
outer loop
vertex 81.55 14.5 1.5
vertex 80.75 9.5 1.5
vertex 81.55 9.5 1.5
endloop
endfacet
facet normal 0 0 1
outer loop
vertex 81.55 6 1.5
vertex 80.75 5 1.5
vertex 118.2 47.5 1.5
endloop
endfacet
facet normal 0 0 1
outer loop
vertex 118.2 47.5 1.5
vertex 119 52.5 1.5
vertex 118.2 52.5 1.5
endloop
endfacet
facet normal 0 0 0.9999999999999999
outer loop
vertex 118.2 56 1.5
vertex 119 57 1.5
vertex 76.8 44 1.5
endloop
endfacet
facet normal 0 0 1
outer loop
vertex 61.2 47.5 1.5
vertex 62 52.5 1.5
vertex 61.2 52.5 1.5
endloop
endfacet
facet normal 0 0 1
outer loop
vertex 61.2 56 1.5
vertex 62 57 1.5
vertex 57.8 52.5 1.5
endloop
endfacet
facet normal 0 0 1
outer loop
vertex 57.8 52.5 1.5
vertex 57 47.5 1.5
vertex 57.8 47.5 1.5
endloop
endfacet
facet normal 0 0 1
outer loop
vertex 42.2 47.5 1.5
vertex 43 52.5 1.5
vertex 42.2 52.5 1.5
endloop
endfacet
facet normal 0 0 1
outer loop
vertex 57 57 1.5
vertex 57.8 56 1.5
vertex 62 57 1.5
endloop
endfacet
facet normal 0 0 1
outer loop
vertex 76.8 52.5 1.5
vertex 76 47.5 1.5
vertex 76.8 47.5 1.5
endloop
endfacet
facet normal 0 0 1
outer loop
vertex 133.8 52.5 1.5
vertex 133 47.5 1.5
vertex 133.8 47.5 1.5
endloop
endfacet
facet normal 0 0 1
outer loop
vertex 119 43 1.5
vertex 118.2 44 1.5
vertex 80.75 5 1.5
endloop
endfacet
facet normal 0 0 1
outer loop
vertex 80.75 5 1.5
vertex 138 44 1.5
vertex 137.2 44 1.5
endloop
endfacet
facet normal 0 0 1
outer loop
vertex 137.2 47.5 1.5
vertex 138 52.5 1.5
vertex 137.2 52.5 1.5
endloop
endfacet
facet normal 0 0 1
outer loop
vertex 152.8 52.5 1.5
vertex 152 47.5 1.5
vertex 152.8 47.5 1.5
endloop
endfacet
facet normal 0 0 1
outer loop
vertex 152 43 1.5
vertex 80.75 5 1.5
vertex 157 44 1.5
endloop
endfacet
facet normal 0 0 1
outer loop
vertex 156.2 47.5 1.5
vertex 157 52.5 1.5
vertex 156.2 52.5 1.5
endloop
endfacet
facet normal 0 0 1
outer loop
vertex 171.8 52.5 1.5
vertex 171 47.5 1.5
vertex 171.8 47.5 1.5
endloop
endfacet
facet normal 0 0 1
outer loop
vertex 171 43 1.5
vertex 80.75 5 1.5
vertex 114.25 19 1.5
endloop
endfacet
facet normal 0 0 1
outer loop
vertex 129.05 14.5 1.5
vertex 128.25 9.5 1.5
vertex 129.05 9.5 1.5
endloop
endfacet
facet normal 0 0 1
outer loop
vertex 129.05 6 1.5
vertex 128.25 5 1.5
vertex 176 38 1.5
endloop
endfacet
facet normal 0 0 1
outer loop
vertex 190.8 33.5 1.5
vertex 190 28.5 1.5
vertex 190.8 28.5 1.5
endloop
endfacet
facet normal 0 0 1
outer loop
vertex 175.2 28.5 1.5
vertex 176 33.5 1.5
vertex 175.2 33.5 1.5
endloop
endfacet
facet normal 0 0 1
outer loop
vertex 175.2 37 1.5
vertex 176 38 1.5
vertex 128.25 5 1.5
endloop
endfacet
facet normal 0 0 1
outer loop
vertex 113.45 9.5 1.5
vertex 114.25 14.5 1.5
vertex 113.45 14.5 1.5
endloop
endfacet
facet normal 0 0 1
outer loop
vertex 113.45 18 1.5
vertex 114.25 19 1.5
vertex 80.75 5 1.5
endloop
endfacet
facet normal 0 0 1
outer loop
vertex 65.95 9.5 1.5
vertex 66.75 14.5 1.5
vertex 65.95 14.5 1.5
endloop
endfacet
facet normal 0 0 1
outer loop
vertex 65.95 18 1.5
vertex 66.75 19 1.5
vertex 5 24 1.5
endloop
endfacet
facet normal 0 0 1
outer loop
vertex 4.2 28.5 1.5
vertex 5 33.5 1.5
vertex 4.2 33.5 1.5
endloop
endfacet
facet normal 0 0 1
outer loop
vertex 19 38 1.5
vertex 19.8 37 1.5
vertex 0 62 1.5
endloop
endfacet
facet normal 0 0 0.9999999999999999
outer loop
vertex 23.2 52.5 1.5
vertex 23.2 56 1.5
vertex 0 62 1.5
endloop
endfacet
facet normal 0 0 1
outer loop
vertex 19.8 28.5 1.5
vertex 19.8 25 1.5
vertex 80.75 19 1.5
endloop
endfacet
facet normal 0 0 1
outer loop
vertex 81.55 9.5 1.5
vertex 81.55 6 1.5
vertex 118.2 47.5 1.5
endloop
endfacet
facet normal 0 0 1
outer loop
vertex 118.2 52.5 1.5
vertex 118.2 56 1.5
vertex 76.8 44 1.5
endloop
endfacet
facet normal 0 0 0.9999999999999999
outer loop
vertex 61.2 52.5 1.5
vertex 61.2 56 1.5
vertex 57.8 52.5 1.5
endloop
endfacet
facet normal 0 0 1
outer loop
vertex 76.8 52.5 1.5
vertex 76.8 47.5 1.5
vertex 119 57 1.5
endloop
endfacet
facet normal 0 0 1
outer loop
vertex 133 43 1.5
vertex 119 43 1.5
vertex 80.75 5 1.5
endloop
endfacet
facet normal 0 0 1
outer loop
vertex 152 43 1.5
vertex 157 44 1.5
vertex 156.2 44 1.5
endloop
endfacet
facet normal 0 0 1
outer loop
vertex 171 43 1.5
vertex 114.25 19 1.5
vertex 128.25 19 1.5
endloop
endfacet
facet normal 0 0 1
outer loop
vertex 129.05 9.5 1.5
vertex 129.05 6 1.5
vertex 176 38 1.5
endloop
endfacet
facet normal 0 0 1
outer loop
vertex 175.2 33.5 1.5
vertex 175.2 37 1.5
vertex 128.25 5 1.5
endloop
endfacet
facet normal 0 0 1
outer loop
vertex 113.45 14.5 1.5
vertex 113.45 18 1.5
vertex 80.75 5 1.5
endloop
endfacet
facet normal 0 0 1
outer loop
vertex 65.95 14.5 1.5
vertex 65.95 18 1.5
vertex 5 24 1.5
endloop
endfacet
facet normal 0 0 1
outer loop
vertex 5 38 1.5
vertex 19 38 1.5
vertex 0 62 1.5
endloop
endfacet
facet normal 0 0 1
outer loop
vertex 23.2 47.5 1.5
vertex 23.2 52.5 1.5
vertex 0 62 1.5
endloop
endfacet
facet normal 0 0 1
outer loop
vertex 19.8 33.5 1.5
vertex 19.8 28.5 1.5
vertex 80.75 19 1.5
endloop
endfacet
facet normal 0 0 1
outer loop
vertex 81.55 14.5 1.5
vertex 81.55 9.5 1.5
vertex 118.2 47.5 1.5
endloop
endfacet
facet normal 0 0 1
outer loop
vertex 118.2 47.5 1.5
vertex 118.2 52.5 1.5
vertex 76.8 44 1.5
endloop
endfacet
facet normal 0 0 1
outer loop
vertex 61.2 47.5 1.5
vertex 61.2 52.5 1.5
vertex 57.8 52.5 1.5
endloop
endfacet
facet normal 0 0 1
outer loop
vertex 76.8 56 1.5
vertex 76.8 52.5 1.5
vertex 119 57 1.5
endloop
endfacet
facet normal 0 0 1
outer loop
vertex 133 43 1.5
vertex 80.75 5 1.5
vertex 137.2 44 1.5
endloop
endfacet
facet normal 0 0 1
outer loop
vertex 152.8 44 1.5
vertex 152 43 1.5
vertex 156.2 44 1.5
endloop
endfacet
facet normal 0 0 1
outer loop
vertex 171 43 1.5
vertex 128.25 19 1.5
vertex 129.05 18 1.5
endloop
endfacet
facet normal 0 0 1
outer loop
vertex 129.05 14.5 1.5
vertex 129.05 9.5 1.5
vertex 176 38 1.5
endloop
endfacet
facet normal 0 0 1
outer loop
vertex 175.2 28.5 1.5
vertex 175.2 33.5 1.5
vertex 128.25 5 1.5
endloop
endfacet
facet normal 0 0 1
outer loop
vertex 113.45 9.5 1.5
vertex 113.45 14.5 1.5
vertex 80.75 5 1.5
endloop
endfacet
facet normal 0 0 1
outer loop
vertex 65.95 9.5 1.5
vertex 65.95 14.5 1.5
vertex 5 24 1.5
endloop
endfacet
facet normal 0 0 1
outer loop
vertex 4.2 37 1.5
vertex 5 38 1.5
vertex 0 62 1.5
endloop
endfacet
facet normal 0 0 0.9999999999999999
outer loop
vertex 23.2 44 1.5
vertex 23.2 47.5 1.5
vertex 0 62 1.5
endloop
endfacet
facet normal 0 0 1
outer loop
vertex 19.8 37 1.5
vertex 19.8 33.5 1.5
vertex 80.75 19 1.5
endloop
endfacet
facet normal 0 0 1
outer loop
vertex 81.55 18 1.5
vertex 81.55 14.5 1.5
vertex 118.2 47.5 1.5
endloop
endfacet
facet normal 0 0 0.9999999999999999
outer loop
vertex 118.2 47.5 1.5
vertex 76.8 44 1.5
vertex 76 43 1.5
endloop
endfacet
facet normal 0 0 0.9999999999999999
outer loop
vertex 61.2 44 1.5
vertex 61.2 47.5 1.5
vertex 57.8 52.5 1.5
endloop
endfacet
facet normal 0 0 1
outer loop
vertex 76 57 1.5
vertex 76.8 56 1.5
vertex 119 57 1.5
endloop
endfacet
facet normal 0 0 1
outer loop
vertex 133.8 44 1.5
vertex 133 43 1.5
vertex 137.2 44 1.5
endloop
endfacet
facet normal 0 0 1
outer loop
vertex 152.8 47.5 1.5
vertex 152.8 44 1.5
vertex 156.2 44 1.5
endloop
endfacet
facet normal 0 0 1
outer loop
vertex 171 43 1.5
vertex 129.05 18 1.5
vertex 129.05 14.5 1.5
endloop
endfacet
facet normal 0 0 1
outer loop
vertex 175.2 25 1.5
vertex 175.2 28.5 1.5
vertex 128.25 5 1.5
endloop
endfacet
facet normal 0 0 1
outer loop
vertex 113.45 6 1.5
vertex 113.45 9.5 1.5
vertex 80.75 5 1.5
endloop
endfacet
facet normal 0 0 1
outer loop
vertex 65.95 6 1.5
vertex 65.95 9.5 1.5
vertex 5 24 1.5
endloop
endfacet
facet normal 0 0 1
outer loop
vertex 4.2 33.5 1.5
vertex 4.2 37 1.5
vertex 0 62 1.5
endloop
endfacet
facet normal 0 0 1
outer loop
vertex 24 43 1.5
vertex 23.2 44 1.5
vertex 0 62 1.5
endloop
endfacet
facet normal 0 0 1
outer loop
vertex 80.75 19 1.5
vertex 81.55 18 1.5
vertex 118.2 47.5 1.5
endloop
endfacet
facet normal 0 0 1
outer loop
vertex 61.2 44 1.5
vertex 57.8 52.5 1.5
vertex 57.8 47.5 1.5
endloop
endfacet
facet normal 0 0 1
outer loop
vertex 133.8 47.5 1.5
vertex 133.8 44 1.5
vertex 137.2 44 1.5
endloop
endfacet
facet normal 0 0 1
outer loop
vertex 152.8 52.5 1.5
vertex 152.8 47.5 1.5
vertex 156.2 44 1.5
endloop
endfacet
facet normal 0 0 1
outer loop
vertex 171 43 1.5
vertex 129.05 14.5 1.5
vertex 176 38 1.5
endloop
endfacet
facet normal 0 0 0.9999999999999999
outer loop
vertex 176 24 1.5
vertex 175.2 25 1.5
vertex 128.25 5 1.5
endloop
endfacet
facet normal 0 0 1
outer loop
vertex 114.25 5 1.5
vertex 113.45 6 1.5
vertex 80.75 5 1.5
endloop
endfacet
facet normal 0 0 1
outer loop
vertex 66.75 5 1.5
vertex 65.95 6 1.5
vertex 5 24 1.5
endloop
endfacet
facet normal 0 0 1
outer loop
vertex 4.2 28.5 1.5
vertex 4.2 33.5 1.5
vertex 0 62 1.5
endloop
endfacet
facet normal 0 0 1
outer loop
vertex 24 43 1.5
vertex 0 62 1.5
vertex 19.8 37 1.5
endloop
endfacet
facet normal 0 0 1
outer loop
vertex 19.8 37 1.5
vertex 80.75 19 1.5
vertex 118.2 47.5 1.5
endloop
endfacet
facet normal 0 0 1
outer loop
vertex 62 43 1.5
vertex 61.2 44 1.5
vertex 57.8 47.5 1.5
endloop
endfacet
facet normal 0 0 1
outer loop
vertex 133.8 52.5 1.5
vertex 133.8 47.5 1.5
vertex 137.2 44 1.5
endloop
endfacet
facet normal 0 0 1
outer loop
vertex 152.8 56 1.5
vertex 152.8 52.5 1.5
vertex 156.2 44 1.5
endloop
endfacet
facet normal 0 0 1
outer loop
vertex 171.8 44 1.5
vertex 171 43 1.5
vertex 176 38 1.5
endloop
endfacet
facet normal 0 0 1
outer loop
vertex 190 24 1.5
vertex 176 24 1.5
vertex 128.25 5 1.5
endloop
endfacet
facet normal 0 0 1
outer loop
vertex 4.2 25 1.5
vertex 4.2 28.5 1.5
vertex 0 62 1.5
endloop
endfacet
facet normal 0 0 1
outer loop
vertex 38 43 1.5
vertex 24 43 1.5
vertex 19.8 37 1.5
endloop
endfacet
facet normal 0 0 1
outer loop
vertex 19.8 37 1.5
vertex 118.2 47.5 1.5
vertex 76 43 1.5
endloop
endfacet
facet normal 0 0 1
outer loop
vertex 62 43 1.5
vertex 57.8 47.5 1.5
vertex 57.8 44 1.5
endloop
endfacet
facet normal 0 0 1
outer loop
vertex 133.8 56 1.5
vertex 133.8 52.5 1.5
vertex 137.2 44 1.5
endloop
endfacet
facet normal 0 0 1
outer loop
vertex 152.8 56 1.5
vertex 156.2 44 1.5
vertex 156.2 47.5 1.5
endloop
endfacet
facet normal 0 0 1
outer loop
vertex 171.8 47.5 1.5
vertex 171.8 44 1.5
vertex 176 38 1.5
endloop
endfacet
facet normal 0 0 1
outer loop
vertex 4.2 25 1.5
vertex 0 62 1.5
vertex 0 0 1.5
endloop
endfacet
facet normal 0 0 1
outer loop
vertex 19.8 37 1.5
vertex 76 43 1.5
vertex 62 43 1.5
endloop
endfacet
facet normal 0 0 1
outer loop
vertex 62 43 1.5
vertex 57.8 44 1.5
vertex 57 43 1.5
endloop
endfacet
facet normal 0 0 1
outer loop
vertex 133.8 56 1.5
vertex 137.2 44 1.5
vertex 137.2 47.5 1.5
endloop
endfacet
facet normal 0 0 1
outer loop
vertex 152.8 56 1.5
vertex 156.2 47.5 1.5
vertex 156.2 52.5 1.5
endloop
endfacet
facet normal 0 0 1
outer loop
vertex 171.8 52.5 1.5
vertex 171.8 47.5 1.5
vertex 176 38 1.5
endloop
endfacet
facet normal 0 0 1
outer loop
vertex 5 24 1.5
vertex 4.2 25 1.5
vertex 0 0 1.5
endloop
endfacet
facet normal 0 0 1
outer loop
vertex 19.8 37 1.5
vertex 62 43 1.5
vertex 57 43 1.5
endloop
endfacet
facet normal 0 0 1
outer loop
vertex 133.8 56 1.5
vertex 137.2 47.5 1.5
vertex 137.2 52.5 1.5
endloop
endfacet
facet normal 0 0 1
outer loop
vertex 152 57 1.5
vertex 152.8 56 1.5
vertex 156.2 52.5 1.5
endloop
endfacet
facet normal 0 0 1
outer loop
vertex 171.8 56 1.5
vertex 171.8 52.5 1.5
vertex 176 38 1.5
endloop
endfacet
facet normal 0 0 1
outer loop
vertex 66.75 5 1.5
vertex 5 24 1.5
vertex 0 0 1.5
endloop
endfacet
facet normal 0 0 1
outer loop
vertex 19.8 37 1.5
vertex 57 43 1.5
vertex 43 43 1.5
endloop
endfacet
facet normal 0 0 1
outer loop
vertex 133 57 1.5
vertex 133.8 56 1.5
vertex 137.2 52.5 1.5
endloop
endfacet
facet normal 0 0 1
outer loop
vertex 152 57 1.5
vertex 156.2 52.5 1.5
vertex 156.2 56 1.5
endloop
endfacet
facet normal 0 0 1
outer loop
vertex 171.8 56 1.5
vertex 176 38 1.5
vertex 190 38 1.5
endloop
endfacet
facet normal 0 0 1
outer loop
vertex 80.75 5 1.5
vertex 66.75 5 1.5
vertex 0 0 1.5
endloop
endfacet
facet normal 0 0 1
outer loop
vertex 38 43 1.5
vertex 19.8 37 1.5
vertex 43 43 1.5
endloop
endfacet
facet normal 0 0 1
outer loop
vertex 133 57 1.5
vertex 137.2 52.5 1.5
vertex 137.2 56 1.5
endloop
endfacet
facet normal 0 0 1
outer loop
vertex 152 57 1.5
vertex 156.2 56 1.5
vertex 157 57 1.5
endloop
endfacet
facet normal 0 0 1
outer loop
vertex 171 57 1.5
vertex 171.8 56 1.5
vertex 190 38 1.5
endloop
endfacet
facet normal 0 0 1
outer loop
vertex 114.25 5 1.5
vertex 80.75 5 1.5
vertex 0 0 1.5
endloop
endfacet
facet normal 0 0 1
outer loop
vertex 38.8 44 1.5
vertex 38 43 1.5
vertex 43 43 1.5
endloop
endfacet
facet normal 0 0 1
outer loop
vertex 133 57 1.5
vertex 137.2 56 1.5
vertex 138 57 1.5
endloop
endfacet
facet normal 0 0 1
outer loop
vertex 128.25 5 1.5
vertex 114.25 5 1.5
vertex 0 0 1.5
endloop
endfacet
facet normal 0 0 1
outer loop
vertex 38.8 47.5 1.5
vertex 38.8 44 1.5
vertex 43 43 1.5
endloop
endfacet
facet normal 0 0 1
outer loop
vertex 128.25 5 1.5
vertex 0 0 1.5
vertex 195 0 1.5
endloop
endfacet
facet normal 0 0 1
outer loop
vertex 38.8 47.5 1.5
vertex 43 43 1.5
vertex 42.2 44 1.5
endloop
endfacet
facet normal 0 0 1
outer loop
vertex 190 24 1.5
vertex 128.25 5 1.5
vertex 195 0 1.5
endloop
endfacet
facet normal 0 0 1
outer loop
vertex 38.8 52.5 1.5
vertex 38.8 47.5 1.5
vertex 42.2 44 1.5
endloop
endfacet
facet normal 0 0 1
outer loop
vertex 190.8 25 1.5
vertex 190 24 1.5
vertex 195 0 1.5
endloop
endfacet
facet normal 0 0 0.9999999999999999
outer loop
vertex 38.8 56 1.5
vertex 38.8 52.5 1.5
vertex 42.2 44 1.5
endloop
endfacet
facet normal 0 0 1
outer loop
vertex 190.8 28.5 1.5
vertex 190.8 25 1.5
vertex 195 0 1.5
endloop
endfacet
facet normal 0 0 0.9999999999999999
outer loop
vertex 38.8 56 1.5
vertex 42.2 44 1.5
vertex 42.2 47.5 1.5
endloop
endfacet
facet normal 0 0 1
outer loop
vertex 190.8 33.5 1.5
vertex 190.8 28.5 1.5
vertex 195 0 1.5
endloop
endfacet
facet normal 0 0 1
outer loop
vertex 38.8 56 1.5
vertex 42.2 47.5 1.5
vertex 42.2 52.5 1.5
endloop
endfacet
facet normal 0 0 1
outer loop
vertex 190.8 37 1.5
vertex 190.8 33.5 1.5
vertex 195 0 1.5
endloop
endfacet
facet normal 0 0 1
outer loop
vertex 38 57 1.5
vertex 38.8 56 1.5
vertex 42.2 52.5 1.5
endloop
endfacet
facet normal 0 0 1
outer loop
vertex 190.8 37 1.5
vertex 195 0 1.5
vertex 195 62 1.5
endloop
endfacet
facet normal 0 0 1
outer loop
vertex 38 57 1.5
vertex 42.2 52.5 1.5
vertex 42.2 56 1.5
endloop
endfacet
facet normal 0 0 1
outer loop
vertex 190 38 1.5
vertex 190.8 37 1.5
vertex 195 62 1.5
endloop
endfacet
facet normal 0 0 1
outer loop
vertex 38 57 1.5
vertex 42.2 56 1.5
vertex 43 57 1.5
endloop
endfacet
facet normal 0 0 1
outer loop
vertex 171 57 1.5
vertex 190 38 1.5
vertex 195 62 1.5
endloop
endfacet
facet normal 0 0 1
outer loop
vertex 195 62 1.5
vertex 38 57 1.5
vertex 43 57 1.5
endloop
endfacet
facet normal 0 0 1
outer loop
vertex 157 57 1.5
vertex 171 57 1.5
vertex 195 62 1.5
endloop
endfacet
facet normal 0 0 1
outer loop
vertex 195 62 1.5
vertex 43 57 1.5
vertex 57 57 1.5
endloop
endfacet
facet normal 0 0 1
outer loop
vertex 152 57 1.5
vertex 157 57 1.5
vertex 195 62 1.5
endloop
endfacet
facet normal 0 0 1
outer loop
vertex 195 62 1.5
vertex 57 57 1.5
vertex 62 57 1.5
endloop
endfacet
facet normal 0 0 1
outer loop
vertex 138 57 1.5
vertex 152 57 1.5
vertex 195 62 1.5
endloop
endfacet
facet normal 0 0 1
outer loop
vertex 195 62 1.5
vertex 62 57 1.5
vertex 76 57 1.5
endloop
endfacet
facet normal 0 0 1
outer loop
vertex 133 57 1.5
vertex 138 57 1.5
vertex 195 62 1.5
endloop
endfacet
facet normal 0 0 1
outer loop
vertex 195 62 1.5
vertex 76 57 1.5
vertex 119 57 1.5
endloop
endfacet
facet normal 0 0 1
outer loop
vertex 119 57 1.5
vertex 133 57 1.5
vertex 195 62 1.5
endloop
endfacet
facet normal 0 -1 0
outer loop
vertex 0 0 0
vertex 195 0 0
vertex 0 0 1.5
endloop
endfacet
facet normal 0 -1 0
outer loop
vertex 195 0 0
vertex 195 0 1.5
vertex 0 0 1.5
endloop
endfacet
facet normal 1 0 0
outer loop
vertex 195 0 0
vertex 195 62 0
vertex 195 0 1.5
endloop
endfacet
facet normal 1 0 0
outer loop
vertex 195 62 0
vertex 195 62 1.5
vertex 195 0 1.5
endloop
endfacet
facet normal 0 1 0
outer loop
vertex 195 62 0
vertex 0 62 0
vertex 195 62 1.5
endloop
endfacet
facet normal 0 1 0
outer loop
vertex 0 62 0
vertex 0 62 1.5
vertex 195 62 1.5
endloop
endfacet
facet normal -1 0 0
outer loop
vertex 0 62 0
vertex 0 0 0
vertex 0 62 1.5
endloop
endfacet
facet normal -1 0 0
outer loop
vertex 0 0 0
vertex 0 0 1.5
vertex 0 62 1.5
endloop
endfacet
facet normal 0 1 0
outer loop
vertex 38 43 0
vertex 24 43 0
vertex 38 43 1.5
endloop
endfacet
facet normal 0 1 0
outer loop
vertex 24 43 0
vertex 24 43 1.5
vertex 38 43 1.5
endloop
endfacet
facet normal 1 0 0
outer loop
vertex 24 43 0
vertex 24 44 0
vertex 24 43 1.5
endloop
endfacet
facet normal 1 0 0
outer loop
vertex 24 44 0
vertex 24 44 1.5
vertex 24 43 1.5
endloop
endfacet
facet normal 0 1 0
outer loop
vertex 24 44 0
vertex 23.2 44 0
vertex 24 44 1.5
endloop
endfacet
facet normal 0 1 0
outer loop
vertex 23.2 44 0
vertex 23.2 44 1.5
vertex 24 44 1.5
endloop
endfacet
facet normal 1 0 0
outer loop
vertex 23.2 44 0
vertex 23.2 47.5 0
vertex 23.2 44 1.5
endloop
endfacet
facet normal 1 0 0
outer loop
vertex 23.2 47.5 0
vertex 23.2 47.5 1.5
vertex 23.2 44 1.5
endloop
endfacet
facet normal 0 -1 0
outer loop
vertex 23.2 47.5 0
vertex 24 47.5 0
vertex 23.2 47.5 1.5
endloop
endfacet
facet normal 0 -1 0
outer loop
vertex 24 47.5 0
vertex 24 47.5 1.5
vertex 23.2 47.5 1.5
endloop
endfacet
facet normal 1 0 0
outer loop
vertex 24 47.5 0
vertex 24 52.5 0
vertex 24 47.5 1.5
endloop
endfacet
facet normal 1 0 0
outer loop
vertex 24 52.5 0
vertex 24 52.5 1.5
vertex 24 47.5 1.5
endloop
endfacet
facet normal 0 1 0
outer loop
vertex 24 52.5 0
vertex 23.2 52.5 0
vertex 24 52.5 1.5
endloop
endfacet
facet normal 0 1 0
outer loop
vertex 23.2 52.5 0
vertex 23.2 52.5 1.5
vertex 24 52.5 1.5
endloop
endfacet
facet normal 1 0 0
outer loop
vertex 23.2 52.5 0
vertex 23.2 56 0
vertex 23.2 52.5 1.5
endloop
endfacet
facet normal 1 0 0
outer loop
vertex 23.2 56 0
vertex 23.2 56 1.5
vertex 23.2 52.5 1.5
endloop
endfacet
facet normal 0 -1 0
outer loop
vertex 23.2 56 0
vertex 24 56 0
vertex 23.2 56 1.5
endloop
endfacet
facet normal 0 -1 0
outer loop
vertex 24 56 0
vertex 24 56 1.5
vertex 23.2 56 1.5
endloop
endfacet
facet normal 1 0 0
outer loop
vertex 24 56 0
vertex 24 57 0
vertex 24 56 1.5
endloop
endfacet
facet normal 1 0 0
outer loop
vertex 24 57 0
vertex 24 57 1.5
vertex 24 56 1.5
endloop
endfacet
facet normal 0 -1 0
outer loop
vertex 24 57 0
vertex 38 57 0
vertex 24 57 1.5
endloop
endfacet
facet normal 0 -1 0
outer loop
vertex 38 57 0
vertex 38 57 1.5
vertex 24 57 1.5
endloop
endfacet
facet normal -1 0 0
outer loop
vertex 38 57 0
vertex 38 56 0
vertex 38 57 1.5
endloop
endfacet
facet normal -1 0 0
outer loop
vertex 38 56 0
vertex 38 56 1.5
vertex 38 57 1.5
endloop
endfacet
facet normal 0 -1 0
outer loop
vertex 38 56 0
vertex 38.8 56 0
vertex 38 56 1.5
endloop
endfacet
facet normal 0 -1 0
outer loop
vertex 38.8 56 0
vertex 38.8 56 1.5
vertex 38 56 1.5
endloop
endfacet
facet normal -1 0 0
outer loop
vertex 38.8 56 0
vertex 38.8 52.5 0
vertex 38.8 56 1.5
endloop
endfacet
facet normal -1 0 0
outer loop
vertex 38.8 52.5 0
vertex 38.8 52.5 1.5
vertex 38.8 56 1.5
endloop
endfacet
facet normal 0 1 0
outer loop
vertex 38.8 52.5 0
vertex 38 52.5 0
vertex 38.8 52.5 1.5
endloop
endfacet
facet normal 0 1 0
outer loop
vertex 38 52.5 0
vertex 38 52.5 1.5
vertex 38.8 52.5 1.5
endloop
endfacet
facet normal -1 0 0
outer loop
vertex 38 52.5 0
vertex 38 47.5 0
vertex 38 52.5 1.5
endloop
endfacet
facet normal -1 0 0
outer loop
vertex 38 47.5 0
vertex 38 47.5 1.5
vertex 38 52.5 1.5
endloop
endfacet
facet normal 0 -1 0
outer loop
vertex 38 47.5 0
vertex 38.8 47.5 0
vertex 38 47.5 1.5
endloop
endfacet
facet normal 0 -1 0
outer loop
vertex 38.8 47.5 0
vertex 38.8 47.5 1.5
vertex 38 47.5 1.5
endloop
endfacet
facet normal -1 0 0
outer loop
vertex 38.8 47.5 0
vertex 38.8 44 0
vertex 38.8 47.5 1.5
endloop
endfacet
facet normal -1 0 0
outer loop
vertex 38.8 44 0
vertex 38.8 44 1.5
vertex 38.8 47.5 1.5
endloop
endfacet
facet normal 0 1 0
outer loop
vertex 38.8 44 0
vertex 38 44 0
vertex 38.8 44 1.5
endloop
endfacet
facet normal 0 1 0
outer loop
vertex 38 44 0
vertex 38 44 1.5
vertex 38.8 44 1.5
endloop
endfacet
facet normal -1 0 0
outer loop
vertex 38 44 0
vertex 38 43 0
vertex 38 44 1.5
endloop
endfacet
facet normal -1 0 0
outer loop
vertex 38 43 0
vertex 38 43 1.5
vertex 38 44 1.5
endloop
endfacet
facet normal 0 1 0
outer loop
vertex 57 43 0
vertex 43 43 0
vertex 57 43 1.5
endloop
endfacet
facet normal 0 1 0
outer loop
vertex 43 43 0
vertex 43 43 1.5
vertex 57 43 1.5
endloop
endfacet
facet normal 1 0 0
outer loop
vertex 43 43 0
vertex 43 44 0
vertex 43 43 1.5
endloop
endfacet
facet normal 1 0 0
outer loop
vertex 43 44 0
vertex 43 44 1.5
vertex 43 43 1.5
endloop
endfacet
facet normal 0 1 0
outer loop
vertex 43 44 0
vertex 42.2 44 0
vertex 43 44 1.5
endloop
endfacet
facet normal 0 1 0
outer loop
vertex 42.2 44 0
vertex 42.2 44 1.5
vertex 43 44 1.5
endloop
endfacet
facet normal 1 0 0
outer loop
vertex 42.2 44 0
vertex 42.2 47.5 0
vertex 42.2 44 1.5
endloop
endfacet
facet normal 1 0 0
outer loop
vertex 42.2 47.5 0
vertex 42.2 47.5 1.5
vertex 42.2 44 1.5
endloop
endfacet
facet normal 0 -1 0
outer loop
vertex 42.2 47.5 0
vertex 43 47.5 0
vertex 42.2 47.5 1.5
endloop
endfacet
facet normal 0 -1 0
outer loop
vertex 43 47.5 0
vertex 43 47.5 1.5
vertex 42.2 47.5 1.5
endloop
endfacet
facet normal 1 0 0
outer loop
vertex 43 47.5 0
vertex 43 52.5 0
vertex 43 47.5 1.5
endloop
endfacet
facet normal 1 0 0
outer loop
vertex 43 52.5 0
vertex 43 52.5 1.5
vertex 43 47.5 1.5
endloop
endfacet
facet normal 0 1 0
outer loop
vertex 43 52.5 0
vertex 42.2 52.5 0
vertex 43 52.5 1.5
endloop
endfacet
facet normal 0 1 0
outer loop
vertex 42.2 52.5 0
vertex 42.2 52.5 1.5
vertex 43 52.5 1.5
endloop
endfacet
facet normal 1 0 0
outer loop
vertex 42.2 52.5 0
vertex 42.2 56 0
vertex 42.2 52.5 1.5
endloop
endfacet
facet normal 1 0 0
outer loop
vertex 42.2 56 0
vertex 42.2 56 1.5
vertex 42.2 52.5 1.5
endloop
endfacet
facet normal 0 -1 0
outer loop
vertex 42.2 56 0
vertex 43 56 0
vertex 42.2 56 1.5
endloop
endfacet
facet normal 0 -1 0
outer loop
vertex 43 56 0
vertex 43 56 1.5
vertex 42.2 56 1.5
endloop
endfacet
facet normal 1 0 0
outer loop
vertex 43 56 0
vertex 43 57 0
vertex 43 56 1.5
endloop
endfacet
facet normal 1 0 0
outer loop
vertex 43 57 0
vertex 43 57 1.5
vertex 43 56 1.5
endloop
endfacet
facet normal 0 -1 0
outer loop
vertex 43 57 0
vertex 57 57 0
vertex 43 57 1.5
endloop
endfacet
facet normal 0 -1 0
outer loop
vertex 57 57 0
vertex 57 57 1.5
vertex 43 57 1.5
endloop
endfacet
facet normal -1 0 0
outer loop
vertex 57 57 0
vertex 57 56 0
vertex 57 57 1.5
endloop
endfacet
facet normal -1 0 0
outer loop
vertex 57 56 0
vertex 57 56 1.5
vertex 57 57 1.5
endloop
endfacet
facet normal 0 -1 0
outer loop
vertex 57 56 0
vertex 57.8 56 0
vertex 57 56 1.5
endloop
endfacet
facet normal 0 -1 0
outer loop
vertex 57.8 56 0
vertex 57.8 56 1.5
vertex 57 56 1.5
endloop
endfacet
facet normal -1 0 0
outer loop
vertex 57.8 56 0
vertex 57.8 52.5 0
vertex 57.8 56 1.5
endloop
endfacet
facet normal -1 0 0
outer loop
vertex 57.8 52.5 0
vertex 57.8 52.5 1.5
vertex 57.8 56 1.5
endloop
endfacet
facet normal 0 1 0
outer loop
vertex 57.8 52.5 0
vertex 57 52.5 0
vertex 57.8 52.5 1.5
endloop
endfacet
facet normal 0 1 0
outer loop
vertex 57 52.5 0
vertex 57 52.5 1.5
vertex 57.8 52.5 1.5
endloop
endfacet
facet normal -1 0 0
outer loop
vertex 57 52.5 0
vertex 57 47.5 0
vertex 57 52.5 1.5
endloop
endfacet
facet normal -1 0 0
outer loop
vertex 57 47.5 0
vertex 57 47.5 1.5
vertex 57 52.5 1.5
endloop
endfacet
facet normal 0 -1 0
outer loop
vertex 57 47.5 0
vertex 57.8 47.5 0
vertex 57 47.5 1.5
endloop
endfacet
facet normal 0 -1 0
outer loop
vertex 57.8 47.5 0
vertex 57.8 47.5 1.5
vertex 57 47.5 1.5
endloop
endfacet
facet normal -1 0 0
outer loop
vertex 57.8 47.5 0
vertex 57.8 44 0
vertex 57.8 47.5 1.5
endloop
endfacet
facet normal -1 0 0
outer loop
vertex 57.8 44 0
vertex 57.8 44 1.5
vertex 57.8 47.5 1.5
endloop
endfacet
facet normal 0 1 0
outer loop
vertex 57.8 44 0
vertex 57 44 0
vertex 57.8 44 1.5
endloop
endfacet
facet normal 0 1 0
outer loop
vertex 57 44 0
vertex 57 44 1.5
vertex 57.8 44 1.5
endloop
endfacet
facet normal -1 0 0
outer loop
vertex 57 44 0
vertex 57 43 0
vertex 57 44 1.5
endloop
endfacet
facet normal -1 0 0
outer loop
vertex 57 43 0
vertex 57 43 1.5
vertex 57 44 1.5
endloop
endfacet
facet normal 0 1 0
outer loop
vertex 76 43 0
vertex 62 43 0
vertex 76 43 1.5
endloop
endfacet
facet normal 0 1 0
outer loop
vertex 62 43 0
vertex 62 43 1.5
vertex 76 43 1.5
endloop
endfacet
facet normal 1 0 0
outer loop
vertex 62 43 0
vertex 62 44 0
vertex 62 43 1.5
endloop
endfacet
facet normal 1 0 0
outer loop
vertex 62 44 0
vertex 62 44 1.5
vertex 62 43 1.5
endloop
endfacet
facet normal 0 1 0
outer loop
vertex 62 44 0
vertex 61.2 44 0
vertex 62 44 1.5
endloop
endfacet
facet normal 0 1 0
outer loop
vertex 61.2 44 0
vertex 61.2 44 1.5
vertex 62 44 1.5
endloop
endfacet
facet normal 1 0 0
outer loop
vertex 61.2 44 0
vertex 61.2 47.5 0
vertex 61.2 44 1.5
endloop
endfacet
facet normal 1 0 0
outer loop
vertex 61.2 47.5 0
vertex 61.2 47.5 1.5
vertex 61.2 44 1.5
endloop
endfacet
facet normal 0 -1 0
outer loop
vertex 61.2 47.5 0
vertex 62 47.5 0
vertex 61.2 47.5 1.5
endloop
endfacet
facet normal 0 -1 0
outer loop
vertex 62 47.5 0
vertex 62 47.5 1.5
vertex 61.2 47.5 1.5
endloop
endfacet
facet normal 1 0 0
outer loop
vertex 62 47.5 0
vertex 62 52.5 0
vertex 62 47.5 1.5
endloop
endfacet
facet normal 1 0 0
outer loop
vertex 62 52.5 0
vertex 62 52.5 1.5
vertex 62 47.5 1.5
endloop
endfacet
facet normal 0 1 0
outer loop
vertex 62 52.5 0
vertex 61.2 52.5 0
vertex 62 52.5 1.5
endloop
endfacet
facet normal 0 1 0
outer loop
vertex 61.2 52.5 0
vertex 61.2 52.5 1.5
vertex 62 52.5 1.5
endloop
endfacet
facet normal 1 0 0
outer loop
vertex 61.2 52.5 0
vertex 61.2 56 0
vertex 61.2 52.5 1.5
endloop
endfacet
facet normal 1 0 0
outer loop
vertex 61.2 56 0
vertex 61.2 56 1.5
vertex 61.2 52.5 1.5
endloop
endfacet
facet normal 0 -1 0
outer loop
vertex 61.2 56 0
vertex 62 56 0
vertex 61.2 56 1.5
endloop
endfacet
facet normal 0 -1 0
outer loop
vertex 62 56 0
vertex 62 56 1.5
vertex 61.2 56 1.5
endloop
endfacet
facet normal 1 0 0
outer loop
vertex 62 56 0
vertex 62 57 0
vertex 62 56 1.5
endloop
endfacet
facet normal 1 0 0
outer loop
vertex 62 57 0
vertex 62 57 1.5
vertex 62 56 1.5
endloop
endfacet
facet normal 0 -1 0
outer loop
vertex 62 57 0
vertex 76 57 0
vertex 62 57 1.5
endloop
endfacet
facet normal 0 -1 0
outer loop
vertex 76 57 0
vertex 76 57 1.5
vertex 62 57 1.5
endloop
endfacet
facet normal -1 0 0
outer loop
vertex 76 57 0
vertex 76 56 0
vertex 76 57 1.5
endloop
endfacet
facet normal -1 0 0
outer loop
vertex 76 56 0
vertex 76 56 1.5
vertex 76 57 1.5
endloop
endfacet
facet normal 0 -1 0
outer loop
vertex 76 56 0
vertex 76.8 56 0
vertex 76 56 1.5
endloop
endfacet
facet normal 0 -1 0
outer loop
vertex 76.8 56 0
vertex 76.8 56 1.5
vertex 76 56 1.5
endloop
endfacet
facet normal -1 0 0
outer loop
vertex 76.8 56 0
vertex 76.8 52.5 0
vertex 76.8 56 1.5
endloop
endfacet
facet normal -1 0 0
outer loop
vertex 76.8 52.5 0
vertex 76.8 52.5 1.5
vertex 76.8 56 1.5
endloop
endfacet
facet normal 0 1 0
outer loop
vertex 76.8 52.5 0
vertex 76 52.5 0
vertex 76.8 52.5 1.5
endloop
endfacet
facet normal 0 1 0
outer loop
vertex 76 52.5 0
vertex 76 52.5 1.5
vertex 76.8 52.5 1.5
endloop
endfacet
facet normal -1 0 0
outer loop
vertex 76 52.5 0
vertex 76 47.5 0
vertex 76 52.5 1.5
endloop
endfacet
facet normal -1 0 0
outer loop
vertex 76 47.5 0
vertex 76 47.5 1.5
vertex 76 52.5 1.5
endloop
endfacet
facet normal 0 -1 0
outer loop
vertex 76 47.5 0
vertex 76.8 47.5 0
vertex 76 47.5 1.5
endloop
endfacet
facet normal 0 -1 0
outer loop
vertex 76.8 47.5 0
vertex 76.8 47.5 1.5
vertex 76 47.5 1.5
endloop
endfacet
facet normal -1 0 0
outer loop
vertex 76.8 47.5 0
vertex 76.8 44 0
vertex 76.8 47.5 1.5
endloop
endfacet
facet normal -1 0 0
outer loop
vertex 76.8 44 0
vertex 76.8 44 1.5
vertex 76.8 47.5 1.5
endloop
endfacet
facet normal 0 1 0
outer loop
vertex 76.8 44 0
vertex 76 44 0
vertex 76.8 44 1.5
endloop
endfacet
facet normal 0 1 0
outer loop
vertex 76 44 0
vertex 76 44 1.5
vertex 76.8 44 1.5
endloop
endfacet
facet normal -1 0 0
outer loop
vertex 76 44 0
vertex 76 43 0
vertex 76 44 1.5
endloop
endfacet
facet normal -1 0 0
outer loop
vertex 76 43 0
vertex 76 43 1.5
vertex 76 44 1.5
endloop
endfacet
facet normal 0 1 0
outer loop
vertex 133 43 0
vertex 119 43 0
vertex 133 43 1.5
endloop
endfacet
facet normal 0 1 0
outer loop
vertex 119 43 0
vertex 119 43 1.5
vertex 133 43 1.5
endloop
endfacet
facet normal 1 0 0
outer loop
vertex 119 43 0
vertex 119 44 0
vertex 119 43 1.5
endloop
endfacet
facet normal 1 0 0
outer loop
vertex 119 44 0
vertex 119 44 1.5
vertex 119 43 1.5
endloop
endfacet
facet normal 0 1 0
outer loop
vertex 119 44 0
vertex 118.2 44 0
vertex 119 44 1.5
endloop
endfacet
facet normal 0 1 0
outer loop
vertex 118.2 44 0
vertex 118.2 44 1.5
vertex 119 44 1.5
endloop
endfacet
facet normal 1 0 0
outer loop
vertex 118.2 44 0
vertex 118.2 47.5 0
vertex 118.2 44 1.5
endloop
endfacet
facet normal 1 0 0
outer loop
vertex 118.2 47.5 0
vertex 118.2 47.5 1.5
vertex 118.2 44 1.5
endloop
endfacet
facet normal 0 -1 0
outer loop
vertex 118.2 47.5 0
vertex 119 47.5 0
vertex 118.2 47.5 1.5
endloop
endfacet
facet normal 0 -1 0
outer loop
vertex 119 47.5 0
vertex 119 47.5 1.5
vertex 118.2 47.5 1.5
endloop
endfacet
facet normal 1 0 0
outer loop
vertex 119 47.5 0
vertex 119 52.5 0
vertex 119 47.5 1.5
endloop
endfacet
facet normal 1 0 0
outer loop
vertex 119 52.5 0
vertex 119 52.5 1.5
vertex 119 47.5 1.5
endloop
endfacet
facet normal 0 1 0
outer loop
vertex 119 52.5 0
vertex 118.2 52.5 0
vertex 119 52.5 1.5
endloop
endfacet
facet normal 0 1 0
outer loop
vertex 118.2 52.5 0
vertex 118.2 52.5 1.5
vertex 119 52.5 1.5
endloop
endfacet
facet normal 1 0 0
outer loop
vertex 118.2 52.5 0
vertex 118.2 56 0
vertex 118.2 52.5 1.5
endloop
endfacet
facet normal 1 0 0
outer loop
vertex 118.2 56 0
vertex 118.2 56 1.5
vertex 118.2 52.5 1.5
endloop
endfacet
facet normal 0 -1 0
outer loop
vertex 118.2 56 0
vertex 119 56 0
vertex 118.2 56 1.5
endloop
endfacet
facet normal 0 -1 0
outer loop
vertex 119 56 0
vertex 119 56 1.5
vertex 118.2 56 1.5
endloop
endfacet
facet normal 1 0 0
outer loop
vertex 119 56 0
vertex 119 57 0
vertex 119 56 1.5
endloop
endfacet
facet normal 1 0 0
outer loop
vertex 119 57 0
vertex 119 57 1.5
vertex 119 56 1.5
endloop
endfacet
facet normal 0 -1 0
outer loop
vertex 119 57 0
vertex 133 57 0
vertex 119 57 1.5
endloop
endfacet
facet normal 0 -1 0
outer loop
vertex 133 57 0
vertex 133 57 1.5
vertex 119 57 1.5
endloop
endfacet
facet normal -1 0 0
outer loop
vertex 133 57 0
vertex 133 56 0
vertex 133 57 1.5
endloop
endfacet
facet normal -1 0 0
outer loop
vertex 133 56 0
vertex 133 56 1.5
vertex 133 57 1.5
endloop
endfacet
facet normal 0 -1 0
outer loop
vertex 133 56 0
vertex 133.8 56 0
vertex 133 56 1.5
endloop
endfacet
facet normal 0 -1 0
outer loop
vertex 133.8 56 0
vertex 133.8 56 1.5
vertex 133 56 1.5
endloop
endfacet
facet normal -1 0 0
outer loop
vertex 133.8 56 0
vertex 133.8 52.5 0
vertex 133.8 56 1.5
endloop
endfacet
facet normal -1 0 0
outer loop
vertex 133.8 52.5 0
vertex 133.8 52.5 1.5
vertex 133.8 56 1.5
endloop
endfacet
facet normal 0 1 0
outer loop
vertex 133.8 52.5 0
vertex 133 52.5 0
vertex 133.8 52.5 1.5
endloop
endfacet
facet normal 0 1 0
outer loop
vertex 133 52.5 0
vertex 133 52.5 1.5
vertex 133.8 52.5 1.5
endloop
endfacet
facet normal -1 0 0
outer loop
vertex 133 52.5 0
vertex 133 47.5 0
vertex 133 52.5 1.5
endloop
endfacet
facet normal -1 0 0
outer loop
vertex 133 47.5 0
vertex 133 47.5 1.5
vertex 133 52.5 1.5
endloop
endfacet
facet normal 0 -1 0
outer loop
vertex 133 47.5 0
vertex 133.8 47.5 0
vertex 133 47.5 1.5
endloop
endfacet
facet normal 0 -1 0
outer loop
vertex 133.8 47.5 0
vertex 133.8 47.5 1.5
vertex 133 47.5 1.5
endloop
endfacet
facet normal -1 0 0
outer loop
vertex 133.8 47.5 0
vertex 133.8 44 0
vertex 133.8 47.5 1.5
endloop
endfacet
facet normal -1 0 0
outer loop
vertex 133.8 44 0
vertex 133.8 44 1.5
vertex 133.8 47.5 1.5
endloop
endfacet
facet normal 0 1 0
outer loop
vertex 133.8 44 0
vertex 133 44 0
vertex 133.8 44 1.5
endloop
endfacet
facet normal 0 1 0
outer loop
vertex 133 44 0
vertex 133 44 1.5
vertex 133.8 44 1.5
endloop
endfacet
facet normal -1 0 0
outer loop
vertex 133 44 0
vertex 133 43 0
vertex 133 44 1.5
endloop
endfacet
facet normal -1 0 0
outer loop
vertex 133 43 0
vertex 133 43 1.5
vertex 133 44 1.5
endloop
endfacet
facet normal 0 1 0
outer loop
vertex 152 43 0
vertex 138 43 0
vertex 152 43 1.5
endloop
endfacet
facet normal 0 1 0
outer loop
vertex 138 43 0
vertex 138 43 1.5
vertex 152 43 1.5
endloop
endfacet
facet normal 1 0 0
outer loop
vertex 138 43 0
vertex 138 44 0
vertex 138 43 1.5
endloop
endfacet
facet normal 1 0 0
outer loop
vertex 138 44 0
vertex 138 44 1.5
vertex 138 43 1.5
endloop
endfacet
facet normal 0 1 0
outer loop
vertex 138 44 0
vertex 137.2 44 0
vertex 138 44 1.5
endloop
endfacet
facet normal 0 1 0
outer loop
vertex 137.2 44 0
vertex 137.2 44 1.5
vertex 138 44 1.5
endloop
endfacet
facet normal 1 0 0
outer loop
vertex 137.2 44 0
vertex 137.2 47.5 0
vertex 137.2 44 1.5
endloop
endfacet
facet normal 1 0 0
outer loop
vertex 137.2 47.5 0
vertex 137.2 47.5 1.5
vertex 137.2 44 1.5
endloop
endfacet
facet normal 0 -1 0
outer loop
vertex 137.2 47.5 0
vertex 138 47.5 0
vertex 137.2 47.5 1.5
endloop
endfacet
facet normal 0 -1 0
outer loop
vertex 138 47.5 0
vertex 138 47.5 1.5
vertex 137.2 47.5 1.5
endloop
endfacet
facet normal 1 0 0
outer loop
vertex 138 47.5 0
vertex 138 52.5 0
vertex 138 47.5 1.5
endloop
endfacet
facet normal 1 0 0
outer loop
vertex 138 52.5 0
vertex 138 52.5 1.5
vertex 138 47.5 1.5
endloop
endfacet
facet normal 0 1 0
outer loop
vertex 138 52.5 0
vertex 137.2 52.5 0
vertex 138 52.5 1.5
endloop
endfacet
facet normal 0 1 0
outer loop
vertex 137.2 52.5 0
vertex 137.2 52.5 1.5
vertex 138 52.5 1.5
endloop
endfacet
facet normal 1 0 0
outer loop
vertex 137.2 52.5 0
vertex 137.2 56 0
vertex 137.2 52.5 1.5
endloop
endfacet
facet normal 1 0 0
outer loop
vertex 137.2 56 0
vertex 137.2 56 1.5
vertex 137.2 52.5 1.5
endloop
endfacet
facet normal 0 -1 0
outer loop
vertex 137.2 56 0
vertex 138 56 0
vertex 137.2 56 1.5
endloop
endfacet
facet normal 0 -1 0
outer loop
vertex 138 56 0
vertex 138 56 1.5
vertex 137.2 56 1.5
endloop
endfacet
facet normal 1 0 0
outer loop
vertex 138 56 0
vertex 138 57 0
vertex 138 56 1.5
endloop
endfacet
facet normal 1 0 0
outer loop
vertex 138 57 0
vertex 138 57 1.5
vertex 138 56 1.5
endloop
endfacet
facet normal 0 -1 0
outer loop
vertex 138 57 0
vertex 152 57 0
vertex 138 57 1.5
endloop
endfacet
facet normal 0 -1 0
outer loop
vertex 152 57 0
vertex 152 57 1.5
vertex 138 57 1.5
endloop
endfacet
facet normal -1 0 0
outer loop
vertex 152 57 0
vertex 152 56 0
vertex 152 57 1.5
endloop
endfacet
facet normal -1 0 0
outer loop
vertex 152 56 0
vertex 152 56 1.5
vertex 152 57 1.5
endloop
endfacet
facet normal 0 -1 0
outer loop
vertex 152 56 0
vertex 152.8 56 0
vertex 152 56 1.5
endloop
endfacet
facet normal 0 -1 0
outer loop
vertex 152.8 56 0
vertex 152.8 56 1.5
vertex 152 56 1.5
endloop
endfacet
facet normal -1 0 0
outer loop
vertex 152.8 56 0
vertex 152.8 52.5 0
vertex 152.8 56 1.5
endloop
endfacet
facet normal -1 0 0
outer loop
vertex 152.8 52.5 0
vertex 152.8 52.5 1.5
vertex 152.8 56 1.5
endloop
endfacet
facet normal 0 1 0
outer loop
vertex 152.8 52.5 0
vertex 152 52.5 0
vertex 152.8 52.5 1.5
endloop
endfacet
facet normal 0 1 0
outer loop
vertex 152 52.5 0
vertex 152 52.5 1.5
vertex 152.8 52.5 1.5
endloop
endfacet
facet normal -1 0 0
outer loop
vertex 152 52.5 0
vertex 152 47.5 0
vertex 152 52.5 1.5
endloop
endfacet
facet normal -1 0 0
outer loop
vertex 152 47.5 0
vertex 152 47.5 1.5
vertex 152 52.5 1.5
endloop
endfacet
facet normal 0 -1 0
outer loop
vertex 152 47.5 0
vertex 152.8 47.5 0
vertex 152 47.5 1.5
endloop
endfacet
facet normal 0 -1 0
outer loop
vertex 152.8 47.5 0
vertex 152.8 47.5 1.5
vertex 152 47.5 1.5
endloop
endfacet
facet normal -1 0 0
outer loop
vertex 152.8 47.5 0
vertex 152.8 44 0
vertex 152.8 47.5 1.5
endloop
endfacet
facet normal -1 0 0
outer loop
vertex 152.8 44 0
vertex 152.8 44 1.5
vertex 152.8 47.5 1.5
endloop
endfacet
facet normal 0 1 0
outer loop
vertex 152.8 44 0
vertex 152 44 0
vertex 152.8 44 1.5
endloop
endfacet
facet normal 0 1 0
outer loop
vertex 152 44 0
vertex 152 44 1.5
vertex 152.8 44 1.5
endloop
endfacet
facet normal -1 0 0
outer loop
vertex 152 44 0
vertex 152 43 0
vertex 152 44 1.5
endloop
endfacet
facet normal -1 0 0
outer loop
vertex 152 43 0
vertex 152 43 1.5
vertex 152 44 1.5
endloop
endfacet
facet normal 0 1 0
outer loop
vertex 171 43 0
vertex 157 43 0
vertex 171 43 1.5
endloop
endfacet
facet normal 0 1 0
outer loop
vertex 157 43 0
vertex 157 43 1.5
vertex 171 43 1.5
endloop
endfacet
facet normal 1 0 0
outer loop
vertex 157 43 0
vertex 157 44 0
vertex 157 43 1.5
endloop
endfacet
facet normal 1 0 0
outer loop
vertex 157 44 0
vertex 157 44 1.5
vertex 157 43 1.5
endloop
endfacet
facet normal 0 1 0
outer loop
vertex 157 44 0
vertex 156.2 44 0
vertex 157 44 1.5
endloop
endfacet
facet normal 0 1 0
outer loop
vertex 156.2 44 0
vertex 156.2 44 1.5
vertex 157 44 1.5
endloop
endfacet
facet normal 1 0 0
outer loop
vertex 156.2 44 0
vertex 156.2 47.5 0
vertex 156.2 44 1.5
endloop
endfacet
facet normal 1 0 0
outer loop
vertex 156.2 47.5 0
vertex 156.2 47.5 1.5
vertex 156.2 44 1.5
endloop
endfacet
facet normal 0 -1 0
outer loop
vertex 156.2 47.5 0
vertex 157 47.5 0
vertex 156.2 47.5 1.5
endloop
endfacet
facet normal 0 -1 0
outer loop
vertex 157 47.5 0
vertex 157 47.5 1.5
vertex 156.2 47.5 1.5
endloop
endfacet
facet normal 1 0 0
outer loop
vertex 157 47.5 0
vertex 157 52.5 0
vertex 157 47.5 1.5
endloop
endfacet
facet normal 1 0 0
outer loop
vertex 157 52.5 0
vertex 157 52.5 1.5
vertex 157 47.5 1.5
endloop
endfacet
facet normal 0 1 0
outer loop
vertex 157 52.5 0
vertex 156.2 52.5 0
vertex 157 52.5 1.5
endloop
endfacet
facet normal 0 1 0
outer loop
vertex 156.2 52.5 0
vertex 156.2 52.5 1.5
vertex 157 52.5 1.5
endloop
endfacet
facet normal 1 0 0
outer loop
vertex 156.2 52.5 0
vertex 156.2 56 0
vertex 156.2 52.5 1.5
endloop
endfacet
facet normal 1 0 0
outer loop
vertex 156.2 56 0
vertex 156.2 56 1.5
vertex 156.2 52.5 1.5
endloop
endfacet
facet normal 0 -1 0
outer loop
vertex 156.2 56 0
vertex 157 56 0
vertex 156.2 56 1.5
endloop
endfacet
facet normal 0 -1 0
outer loop
vertex 157 56 0
vertex 157 56 1.5
vertex 156.2 56 1.5
endloop
endfacet
facet normal 1 0 0
outer loop
vertex 157 56 0
vertex 157 57 0
vertex 157 56 1.5
endloop
endfacet
facet normal 1 0 0
outer loop
vertex 157 57 0
vertex 157 57 1.5
vertex 157 56 1.5
endloop
endfacet
facet normal 0 -1 0
outer loop
vertex 157 57 0
vertex 171 57 0
vertex 157 57 1.5
endloop
endfacet
facet normal 0 -1 0
outer loop
vertex 171 57 0
vertex 171 57 1.5
vertex 157 57 1.5
endloop
endfacet
facet normal -1 0 0
outer loop
vertex 171 57 0
vertex 171 56 0
vertex 171 57 1.5
endloop
endfacet
facet normal -1 0 0
outer loop
vertex 171 56 0
vertex 171 56 1.5
vertex 171 57 1.5
endloop
endfacet
facet normal 0 -1 0
outer loop
vertex 171 56 0
vertex 171.8 56 0
vertex 171 56 1.5
endloop
endfacet
facet normal 0 -1 0
outer loop
vertex 171.8 56 0
vertex 171.8 56 1.5
vertex 171 56 1.5
endloop
endfacet
facet normal -1 0 0
outer loop
vertex 171.8 56 0
vertex 171.8 52.5 0
vertex 171.8 56 1.5
endloop
endfacet
facet normal -1 0 0
outer loop
vertex 171.8 52.5 0
vertex 171.8 52.5 1.5
vertex 171.8 56 1.5
endloop
endfacet
facet normal 0 1 0
outer loop
vertex 171.8 52.5 0
vertex 171 52.5 0
vertex 171.8 52.5 1.5
endloop
endfacet
facet normal 0 1 0
outer loop
vertex 171 52.5 0
vertex 171 52.5 1.5
vertex 171.8 52.5 1.5
endloop
endfacet
facet normal -1 0 0
outer loop
vertex 171 52.5 0
vertex 171 47.5 0
vertex 171 52.5 1.5
endloop
endfacet
facet normal -1 0 0
outer loop
vertex 171 47.5 0
vertex 171 47.5 1.5
vertex 171 52.5 1.5
endloop
endfacet
facet normal 0 -1 0
outer loop
vertex 171 47.5 0
vertex 171.8 47.5 0
vertex 171 47.5 1.5
endloop
endfacet
facet normal 0 -1 0
outer loop
vertex 171.8 47.5 0
vertex 171.8 47.5 1.5
vertex 171 47.5 1.5
endloop
endfacet
facet normal -1 0 0
outer loop
vertex 171.8 47.5 0
vertex 171.8 44 0
vertex 171.8 47.5 1.5
endloop
endfacet
facet normal -1 0 0
outer loop
vertex 171.8 44 0
vertex 171.8 44 1.5
vertex 171.8 47.5 1.5
endloop
endfacet
facet normal 0 1 0
outer loop
vertex 171.8 44 0
vertex 171 44 0
vertex 171.8 44 1.5
endloop
endfacet
facet normal 0 1 0
outer loop
vertex 171 44 0
vertex 171 44 1.5
vertex 171.8 44 1.5
endloop
endfacet
facet normal -1 0 0
outer loop
vertex 171 44 0
vertex 171 43 0
vertex 171 44 1.5
endloop
endfacet
facet normal -1 0 0
outer loop
vertex 171 43 0
vertex 171 43 1.5
vertex 171 44 1.5
endloop
endfacet
facet normal 0 1 0
outer loop
vertex 19 24 0
vertex 5 24 0
vertex 19 24 1.5
endloop
endfacet
facet normal 0 1 0
outer loop
vertex 5 24 0
vertex 5 24 1.5
vertex 19 24 1.5
endloop
endfacet
facet normal 1 0 0
outer loop
vertex 5 24 0
vertex 5 25 0
vertex 5 24 1.5
endloop
endfacet
facet normal 1 0 0
outer loop
vertex 5 25 0
vertex 5 25 1.5
vertex 5 24 1.5
endloop
endfacet
facet normal 0 1 0
outer loop
vertex 5 25 0
vertex 4.2 25 0
vertex 5 25 1.5
endloop
endfacet
facet normal 0 1 0
outer loop
vertex 4.2 25 0
vertex 4.2 25 1.5
vertex 5 25 1.5
endloop
endfacet
facet normal 1 0 0
outer loop
vertex 4.2 25 0
vertex 4.2 28.5 0
vertex 4.2 25 1.5
endloop
endfacet
facet normal 1 0 0
outer loop
vertex 4.2 28.5 0
vertex 4.2 28.5 1.5
vertex 4.2 25 1.5
endloop
endfacet
facet normal 0 -1 0
outer loop
vertex 4.2 28.5 0
vertex 5 28.5 0
vertex 4.2 28.5 1.5
endloop
endfacet
facet normal 0 -1 0
outer loop
vertex 5 28.5 0
vertex 5 28.5 1.5
vertex 4.2 28.5 1.5
endloop
endfacet
facet normal 1 0 0
outer loop
vertex 5 28.5 0
vertex 5 33.5 0
vertex 5 28.5 1.5
endloop
endfacet
facet normal 1 0 0
outer loop
vertex 5 33.5 0
vertex 5 33.5 1.5
vertex 5 28.5 1.5
endloop
endfacet
facet normal 0 1 0
outer loop
vertex 5 33.5 0
vertex 4.2 33.5 0
vertex 5 33.5 1.5
endloop
endfacet
facet normal 0 1 0
outer loop
vertex 4.2 33.5 0
vertex 4.2 33.5 1.5
vertex 5 33.5 1.5
endloop
endfacet
facet normal 1 0 0
outer loop
vertex 4.2 33.5 0
vertex 4.2 37 0
vertex 4.2 33.5 1.5
endloop
endfacet
facet normal 1 0 0
outer loop
vertex 4.2 37 0
vertex 4.2 37 1.5
vertex 4.2 33.5 1.5
endloop
endfacet
facet normal 0 -1 0
outer loop
vertex 4.2 37 0
vertex 5 37 0
vertex 4.2 37 1.5
endloop
endfacet
facet normal 0 -1 0
outer loop
vertex 5 37 0
vertex 5 37 1.5
vertex 4.2 37 1.5
endloop
endfacet
facet normal 1 0 0
outer loop
vertex 5 37 0
vertex 5 38 0
vertex 5 37 1.5
endloop
endfacet
facet normal 1 0 0
outer loop
vertex 5 38 0
vertex 5 38 1.5
vertex 5 37 1.5
endloop
endfacet
facet normal 0 -1 0
outer loop
vertex 5 38 0
vertex 19 38 0
vertex 5 38 1.5
endloop
endfacet
facet normal 0 -1 0
outer loop
vertex 19 38 0
vertex 19 38 1.5
vertex 5 38 1.5
endloop
endfacet
facet normal -1 0 0
outer loop
vertex 19 38 0
vertex 19 37 0
vertex 19 38 1.5
endloop
endfacet
facet normal -1 0 0
outer loop
vertex 19 37 0
vertex 19 37 1.5
vertex 19 38 1.5
endloop
endfacet
facet normal 0 -1 0
outer loop
vertex 19 37 0
vertex 19.8 37 0
vertex 19 37 1.5
endloop
endfacet
facet normal 0 -1 0
outer loop
vertex 19.8 37 0
vertex 19.8 37 1.5
vertex 19 37 1.5
endloop
endfacet
facet normal -1 0 0
outer loop
vertex 19.8 37 0
vertex 19.8 33.5 0
vertex 19.8 37 1.5
endloop
endfacet
facet normal -1 0 0
outer loop
vertex 19.8 33.5 0
vertex 19.8 33.5 1.5
vertex 19.8 37 1.5
endloop
endfacet
facet normal 0 1 0
outer loop
vertex 19.8 33.5 0
vertex 19 33.5 0
vertex 19.8 33.5 1.5
endloop
endfacet
facet normal 0 1 0
outer loop
vertex 19 33.5 0
vertex 19 33.5 1.5
vertex 19.8 33.5 1.5
endloop
endfacet
facet normal -1 0 0
outer loop
vertex 19 33.5 0
vertex 19 28.5 0
vertex 19 33.5 1.5
endloop
endfacet
facet normal -1 0 0
outer loop
vertex 19 28.5 0
vertex 19 28.5 1.5
vertex 19 33.5 1.5
endloop
endfacet
facet normal 0 -1 0
outer loop
vertex 19 28.5 0
vertex 19.8 28.5 0
vertex 19 28.5 1.5
endloop
endfacet
facet normal 0 -1 0
outer loop
vertex 19.8 28.5 0
vertex 19.8 28.5 1.5
vertex 19 28.5 1.5
endloop
endfacet
facet normal -1 0 0
outer loop
vertex 19.8 28.5 0
vertex 19.8 25 0
vertex 19.8 28.5 1.5
endloop
endfacet
facet normal -1 0 0
outer loop
vertex 19.8 25 0
vertex 19.8 25 1.5
vertex 19.8 28.5 1.5
endloop
endfacet
facet normal 0 1 0
outer loop
vertex 19.8 25 0
vertex 19 25 0
vertex 19.8 25 1.5
endloop
endfacet
facet normal 0 1 0
outer loop
vertex 19 25 0
vertex 19 25 1.5
vertex 19.8 25 1.5
endloop
endfacet
facet normal -1 0 0
outer loop
vertex 19 25 0
vertex 19 24 0
vertex 19 25 1.5
endloop
endfacet
facet normal -1 0 0
outer loop
vertex 19 24 0
vertex 19 24 1.5
vertex 19 25 1.5
endloop
endfacet
facet normal 0 1 0
outer loop
vertex 190 24 0
vertex 176 24 0
vertex 190 24 1.5
endloop
endfacet
facet normal 0 1 0
outer loop
vertex 176 24 0
vertex 176 24 1.5
vertex 190 24 1.5
endloop
endfacet
facet normal 1 0 0
outer loop
vertex 176 24 0
vertex 176 25 0
vertex 176 24 1.5
endloop
endfacet
facet normal 1 0 0
outer loop
vertex 176 25 0
vertex 176 25 1.5
vertex 176 24 1.5
endloop
endfacet
facet normal 0 1 0
outer loop
vertex 176 25 0
vertex 175.2 25 0
vertex 176 25 1.5
endloop
endfacet
facet normal 0 1 0
outer loop
vertex 175.2 25 0
vertex 175.2 25 1.5
vertex 176 25 1.5
endloop
endfacet
facet normal 1 0 0
outer loop
vertex 175.2 25 0
vertex 175.2 28.5 0
vertex 175.2 25 1.5
endloop
endfacet
facet normal 1 0 0
outer loop
vertex 175.2 28.5 0
vertex 175.2 28.5 1.5
vertex 175.2 25 1.5
endloop
endfacet
facet normal 0 -1 0
outer loop
vertex 175.2 28.5 0
vertex 176 28.5 0
vertex 175.2 28.5 1.5
endloop
endfacet
facet normal 0 -1 0
outer loop
vertex 176 28.5 0
vertex 176 28.5 1.5
vertex 175.2 28.5 1.5
endloop
endfacet
facet normal 1 0 0
outer loop
vertex 176 28.5 0
vertex 176 33.5 0
vertex 176 28.5 1.5
endloop
endfacet
facet normal 1 0 0
outer loop
vertex 176 33.5 0
vertex 176 33.5 1.5
vertex 176 28.5 1.5
endloop
endfacet
facet normal 0 1 0
outer loop
vertex 176 33.5 0
vertex 175.2 33.5 0
vertex 176 33.5 1.5
endloop
endfacet
facet normal 0 1 0
outer loop
vertex 175.2 33.5 0
vertex 175.2 33.5 1.5
vertex 176 33.5 1.5
endloop
endfacet
facet normal 1 0 0
outer loop
vertex 175.2 33.5 0
vertex 175.2 37 0
vertex 175.2 33.5 1.5
endloop
endfacet
facet normal 1 0 0
outer loop
vertex 175.2 37 0
vertex 175.2 37 1.5
vertex 175.2 33.5 1.5
endloop
endfacet
facet normal 0 -1 0
outer loop
vertex 175.2 37 0
vertex 176 37 0
vertex 175.2 37 1.5
endloop
endfacet
facet normal 0 -1 0
outer loop
vertex 176 37 0
vertex 176 37 1.5
vertex 175.2 37 1.5
endloop
endfacet
facet normal 1 0 0
outer loop
vertex 176 37 0
vertex 176 38 0
vertex 176 37 1.5
endloop
endfacet
facet normal 1 0 0
outer loop
vertex 176 38 0
vertex 176 38 1.5
vertex 176 37 1.5
endloop
endfacet
facet normal 0 -1 0
outer loop
vertex 176 38 0
vertex 190 38 0
vertex 176 38 1.5
endloop
endfacet
facet normal 0 -1 0
outer loop
vertex 190 38 0
vertex 190 38 1.5
vertex 176 38 1.5
endloop
endfacet
facet normal -1 0 0
outer loop
vertex 190 38 0
vertex 190 37 0
vertex 190 38 1.5
endloop
endfacet
facet normal -1 0 0
outer loop
vertex 190 37 0
vertex 190 37 1.5
vertex 190 38 1.5
endloop
endfacet
facet normal 0 -1 0
outer loop
vertex 190 37 0
vertex 190.8 37 0
vertex 190 37 1.5
endloop
endfacet
facet normal 0 -1 0
outer loop
vertex 190.8 37 0
vertex 190.8 37 1.5
vertex 190 37 1.5
endloop
endfacet
facet normal -1 0 0
outer loop
vertex 190.8 37 0
vertex 190.8 33.5 0
vertex 190.8 37 1.5
endloop
endfacet
facet normal -1 0 0
outer loop
vertex 190.8 33.5 0
vertex 190.8 33.5 1.5
vertex 190.8 37 1.5
endloop
endfacet
facet normal 0 1 0
outer loop
vertex 190.8 33.5 0
vertex 190 33.5 0
vertex 190.8 33.5 1.5
endloop
endfacet
facet normal 0 1 0
outer loop
vertex 190 33.5 0
vertex 190 33.5 1.5
vertex 190.8 33.5 1.5
endloop
endfacet
facet normal -1 0 0
outer loop
vertex 190 33.5 0
vertex 190 28.5 0
vertex 190 33.5 1.5
endloop
endfacet
facet normal -1 0 0
outer loop
vertex 190 28.5 0
vertex 190 28.5 1.5
vertex 190 33.5 1.5
endloop
endfacet
facet normal 0 -1 0
outer loop
vertex 190 28.5 0
vertex 190.8 28.5 0
vertex 190 28.5 1.5
endloop
endfacet
facet normal 0 -1 0
outer loop
vertex 190.8 28.5 0
vertex 190.8 28.5 1.5
vertex 190 28.5 1.5
endloop
endfacet
facet normal -1 0 0
outer loop
vertex 190.8 28.5 0
vertex 190.8 25 0
vertex 190.8 28.5 1.5
endloop
endfacet
facet normal -1 0 0
outer loop
vertex 190.8 25 0
vertex 190.8 25 1.5
vertex 190.8 28.5 1.5
endloop
endfacet
facet normal 0 1 0
outer loop
vertex 190.8 25 0
vertex 190 25 0
vertex 190.8 25 1.5
endloop
endfacet
facet normal 0 1 0
outer loop
vertex 190 25 0
vertex 190 25 1.5
vertex 190.8 25 1.5
endloop
endfacet
facet normal -1 0 0
outer loop
vertex 190 25 0
vertex 190 24 0
vertex 190 25 1.5
endloop
endfacet
facet normal -1 0 0
outer loop
vertex 190 24 0
vertex 190 24 1.5
vertex 190 25 1.5
endloop
endfacet
facet normal 0 1 0
outer loop
vertex 80.75 5 0
vertex 66.75 5 0
vertex 80.75 5 1.5
endloop
endfacet
facet normal 0 1 0
outer loop
vertex 66.75 5 0
vertex 66.75 5 1.5
vertex 80.75 5 1.5
endloop
endfacet
facet normal 1 0 0
outer loop
vertex 66.75 5 0
vertex 66.75 6 0
vertex 66.75 5 1.5
endloop
endfacet
facet normal 1 0 0
outer loop
vertex 66.75 6 0
vertex 66.75 6 1.5
vertex 66.75 5 1.5
endloop
endfacet
facet normal 0 1 0
outer loop
vertex 66.75 6 0
vertex 65.95 6 0
vertex 66.75 6 1.5
endloop
endfacet
facet normal 0 1 0
outer loop
vertex 65.95 6 0
vertex 65.95 6 1.5
vertex 66.75 6 1.5
endloop
endfacet
facet normal 1 0 0
outer loop
vertex 65.95 6 0
vertex 65.95 9.5 0
vertex 65.95 6 1.5
endloop
endfacet
facet normal 1 0 0
outer loop
vertex 65.95 9.5 0
vertex 65.95 9.5 1.5
vertex 65.95 6 1.5
endloop
endfacet
facet normal 0 -1 0
outer loop
vertex 65.95 9.5 0
vertex 66.75 9.5 0
vertex 65.95 9.5 1.5
endloop
endfacet
facet normal 0 -1 0
outer loop
vertex 66.75 9.5 0
vertex 66.75 9.5 1.5
vertex 65.95 9.5 1.5
endloop
endfacet
facet normal 1 0 0
outer loop
vertex 66.75 9.5 0
vertex 66.75 14.5 0
vertex 66.75 9.5 1.5
endloop
endfacet
facet normal 1 0 0
outer loop
vertex 66.75 14.5 0
vertex 66.75 14.5 1.5
vertex 66.75 9.5 1.5
endloop
endfacet
facet normal 0 1 0
outer loop
vertex 66.75 14.5 0
vertex 65.95 14.5 0
vertex 66.75 14.5 1.5
endloop
endfacet
facet normal 0 1 0
outer loop
vertex 65.95 14.5 0
vertex 65.95 14.5 1.5
vertex 66.75 14.5 1.5
endloop
endfacet
facet normal 1 0 0
outer loop
vertex 65.95 14.5 0
vertex 65.95 18 0
vertex 65.95 14.5 1.5
endloop
endfacet
facet normal 1 0 0
outer loop
vertex 65.95 18 0
vertex 65.95 18 1.5
vertex 65.95 14.5 1.5
endloop
endfacet
facet normal 0 -1 0
outer loop
vertex 65.95 18 0
vertex 66.75 18 0
vertex 65.95 18 1.5
endloop
endfacet
facet normal 0 -1 0
outer loop
vertex 66.75 18 0
vertex 66.75 18 1.5
vertex 65.95 18 1.5
endloop
endfacet
facet normal 1 0 0
outer loop
vertex 66.75 18 0
vertex 66.75 19 0
vertex 66.75 18 1.5
endloop
endfacet
facet normal 1 0 0
outer loop
vertex 66.75 19 0
vertex 66.75 19 1.5
vertex 66.75 18 1.5
endloop
endfacet
facet normal 0 -1 0
outer loop
vertex 66.75 19 0
vertex 80.75 19 0
vertex 66.75 19 1.5
endloop
endfacet
facet normal 0 -1 0
outer loop
vertex 80.75 19 0
vertex 80.75 19 1.5
vertex 66.75 19 1.5
endloop
endfacet
facet normal -1 0 0
outer loop
vertex 80.75 19 0
vertex 80.75 18 0
vertex 80.75 19 1.5
endloop
endfacet
facet normal -1 0 0
outer loop
vertex 80.75 18 0
vertex 80.75 18 1.5
vertex 80.75 19 1.5
endloop
endfacet
facet normal 0 -1 0
outer loop
vertex 80.75 18 0
vertex 81.55 18 0
vertex 80.75 18 1.5
endloop
endfacet
facet normal 0 -1 0
outer loop
vertex 81.55 18 0
vertex 81.55 18 1.5
vertex 80.75 18 1.5
endloop
endfacet
facet normal -1 0 0
outer loop
vertex 81.55 18 0
vertex 81.55 14.5 0
vertex 81.55 18 1.5
endloop
endfacet
facet normal -1 0 0
outer loop
vertex 81.55 14.5 0
vertex 81.55 14.5 1.5
vertex 81.55 18 1.5
endloop
endfacet
facet normal 0 1 0
outer loop
vertex 81.55 14.5 0
vertex 80.75 14.5 0
vertex 81.55 14.5 1.5
endloop
endfacet
facet normal 0 1 0
outer loop
vertex 80.75 14.5 0
vertex 80.75 14.5 1.5
vertex 81.55 14.5 1.5
endloop
endfacet
facet normal -1 0 0
outer loop
vertex 80.75 14.5 0
vertex 80.75 9.5 0
vertex 80.75 14.5 1.5
endloop
endfacet
facet normal -1 0 0
outer loop
vertex 80.75 9.5 0
vertex 80.75 9.5 1.5
vertex 80.75 14.5 1.5
endloop
endfacet
facet normal 0 -1 0
outer loop
vertex 80.75 9.5 0
vertex 81.55 9.5 0
vertex 80.75 9.5 1.5
endloop
endfacet
facet normal 0 -1 0
outer loop
vertex 81.55 9.5 0
vertex 81.55 9.5 1.5
vertex 80.75 9.5 1.5
endloop
endfacet
facet normal -1 0 0
outer loop
vertex 81.55 9.5 0
vertex 81.55 6 0
vertex 81.55 9.5 1.5
endloop
endfacet
facet normal -1 0 0
outer loop
vertex 81.55 6 0
vertex 81.55 6 1.5
vertex 81.55 9.5 1.5
endloop
endfacet
facet normal 0 1 0
outer loop
vertex 81.55 6 0
vertex 80.75 6 0
vertex 81.55 6 1.5
endloop
endfacet
facet normal 0 1 0
outer loop
vertex 80.75 6 0
vertex 80.75 6 1.5
vertex 81.55 6 1.5
endloop
endfacet
facet normal -1 0 0
outer loop
vertex 80.75 6 0
vertex 80.75 5 0
vertex 80.75 6 1.5
endloop
endfacet
facet normal -1 0 0
outer loop
vertex 80.75 5 0
vertex 80.75 5 1.5
vertex 80.75 6 1.5
endloop
endfacet
facet normal 0 1 0
outer loop
vertex 128.25 5 0
vertex 114.25 5 0
vertex 128.25 5 1.5
endloop
endfacet
facet normal 0 1 0
outer loop
vertex 114.25 5 0
vertex 114.25 5 1.5
vertex 128.25 5 1.5
endloop
endfacet
facet normal 1 0 0
outer loop
vertex 114.25 5 0
vertex 114.25 6 0
vertex 114.25 5 1.5
endloop
endfacet
facet normal 1 0 0
outer loop
vertex 114.25 6 0
vertex 114.25 6 1.5
vertex 114.25 5 1.5
endloop
endfacet
facet normal 0 1 0
outer loop
vertex 114.25 6 0
vertex 113.45 6 0
vertex 114.25 6 1.5
endloop
endfacet
facet normal 0 1 0
outer loop
vertex 113.45 6 0
vertex 113.45 6 1.5
vertex 114.25 6 1.5
endloop
endfacet
facet normal 1 0 0
outer loop
vertex 113.45 6 0
vertex 113.45 9.5 0
vertex 113.45 6 1.5
endloop
endfacet
facet normal 1 0 0
outer loop
vertex 113.45 9.5 0
vertex 113.45 9.5 1.5
vertex 113.45 6 1.5
endloop
endfacet
facet normal 0 -1 0
outer loop
vertex 113.45 9.5 0
vertex 114.25 9.5 0
vertex 113.45 9.5 1.5
endloop
endfacet
facet normal 0 -1 0
outer loop
vertex 114.25 9.5 0
vertex 114.25 9.5 1.5
vertex 113.45 9.5 1.5
endloop
endfacet
facet normal 1 0 0
outer loop
vertex 114.25 9.5 0
vertex 114.25 14.5 0
vertex 114.25 9.5 1.5
endloop
endfacet
facet normal 1 0 0
outer loop
vertex 114.25 14.5 0
vertex 114.25 14.5 1.5
vertex 114.25 9.5 1.5
endloop
endfacet
facet normal 0 1 0
outer loop
vertex 114.25 14.5 0
vertex 113.45 14.5 0
vertex 114.25 14.5 1.5
endloop
endfacet
facet normal 0 1 0
outer loop
vertex 113.45 14.5 0
vertex 113.45 14.5 1.5
vertex 114.25 14.5 1.5
endloop
endfacet
facet normal 1 0 0
outer loop
vertex 113.45 14.5 0
vertex 113.45 18 0
vertex 113.45 14.5 1.5
endloop
endfacet
facet normal 1 0 0
outer loop
vertex 113.45 18 0
vertex 113.45 18 1.5
vertex 113.45 14.5 1.5
endloop
endfacet
facet normal 0 -1 0
outer loop
vertex 113.45 18 0
vertex 114.25 18 0
vertex 113.45 18 1.5
endloop
endfacet
facet normal 0 -1 0
outer loop
vertex 114.25 18 0
vertex 114.25 18 1.5
vertex 113.45 18 1.5
endloop
endfacet
facet normal 1 0 0
outer loop
vertex 114.25 18 0
vertex 114.25 19 0
vertex 114.25 18 1.5
endloop
endfacet
facet normal 1 0 0
outer loop
vertex 114.25 19 0
vertex 114.25 19 1.5
vertex 114.25 18 1.5
endloop
endfacet
facet normal 0 -1 0
outer loop
vertex 114.25 19 0
vertex 128.25 19 0
vertex 114.25 19 1.5
endloop
endfacet
facet normal 0 -1 0
outer loop
vertex 128.25 19 0
vertex 128.25 19 1.5
vertex 114.25 19 1.5
endloop
endfacet
facet normal -1 0 0
outer loop
vertex 128.25 19 0
vertex 128.25 18 0
vertex 128.25 19 1.5
endloop
endfacet
facet normal -1 0 0
outer loop
vertex 128.25 18 0
vertex 128.25 18 1.5
vertex 128.25 19 1.5
endloop
endfacet
facet normal 0 -1 0
outer loop
vertex 128.25 18 0
vertex 129.05 18 0
vertex 128.25 18 1.5
endloop
endfacet
facet normal 0 -1 0
outer loop
vertex 129.05 18 0
vertex 129.05 18 1.5
vertex 128.25 18 1.5
endloop
endfacet
facet normal -1 0 0
outer loop
vertex 129.05 18 0
vertex 129.05 14.5 0
vertex 129.05 18 1.5
endloop
endfacet
facet normal -1 0 0
outer loop
vertex 129.05 14.5 0
vertex 129.05 14.5 1.5
vertex 129.05 18 1.5
endloop
endfacet
facet normal 0 1 0
outer loop
vertex 129.05 14.5 0
vertex 128.25 14.5 0
vertex 129.05 14.5 1.5
endloop
endfacet
facet normal 0 1 0
outer loop
vertex 128.25 14.5 0
vertex 128.25 14.5 1.5
vertex 129.05 14.5 1.5
endloop
endfacet
facet normal -1 0 0
outer loop
vertex 128.25 14.5 0
vertex 128.25 9.5 0
vertex 128.25 14.5 1.5
endloop
endfacet
facet normal -1 0 0
outer loop
vertex 128.25 9.5 0
vertex 128.25 9.5 1.5
vertex 128.25 14.5 1.5
endloop
endfacet
facet normal 0 -1 0
outer loop
vertex 128.25 9.5 0
vertex 129.05 9.5 0
vertex 128.25 9.5 1.5
endloop
endfacet
facet normal 0 -1 0
outer loop
vertex 129.05 9.5 0
vertex 129.05 9.5 1.5
vertex 128.25 9.5 1.5
endloop
endfacet
facet normal -1 0 0
outer loop
vertex 129.05 9.5 0
vertex 129.05 6 0
vertex 129.05 9.5 1.5
endloop
endfacet
facet normal -1 0 0
outer loop
vertex 129.05 6 0
vertex 129.05 6 1.5
vertex 129.05 9.5 1.5
endloop
endfacet
facet normal 0 1 0
outer loop
vertex 129.05 6 0
vertex 128.25 6 0
vertex 129.05 6 1.5
endloop
endfacet
facet normal 0 1 0
outer loop
vertex 128.25 6 0
vertex 128.25 6 1.5
vertex 129.05 6 1.5
endloop
endfacet
facet normal -1 0 0
outer loop
vertex 128.25 6 0
vertex 128.25 5 0
vertex 128.25 6 1.5
endloop
endfacet
facet normal -1 0 0
outer loop
vertex 128.25 5 0
vertex 128.25 5 1.5
vertex 128.25 6 1.5
endloop
endfacet
endsolid