0
SECTION
2
HEADER
9
$INSUNITS
70
4
9
$INSBASE
10
0.0
20
0.0
30
0.0
9
$EXTMIN
10
0
20
0
9
$EXTMAX
10
195
20
62
0
ENDSEC
0
SECTION
2
TABLES
0
TABLE
2
LTYPE
70
1
0
LTYPE
2
CONTINUOUS
70
64
3
Solid line
72
65
73
0
40
0.0
0
ENDTAB
0
TABLE
2
LAYER
70
1
0
LAYER
2
Layer1
70
64
62
7
6
CONTINUOUS
0
ENDTAB
0
TABLE
2
STYLE
70
0
0
ENDTAB
0
TABLE
2
VIEW
70
0
0
ENDTAB
0
ENDSEC
0
SECTION
2
BLOCKS
0
ENDSEC
0
SECTION
2
ENTITIES
0
POLYLINE
5
10
8
Layer1
66
1
10
0.0
20
0.0
30
0.0
70
1
0
VERTEX
5
11
8
Layer1
10
0.0000
20
0.0000
30
0.0
0
VERTEX
5
12
8
Layer1
10
195.0000
20
0.0000
30
0.0
0
VERTEX
5
13
8
Layer1
10
195.0000
20
62.0000
30
0.0
0
VERTEX
5
14
8
Layer1
10
0.0000
20
62.0000
30
0.0
0
VERTEX
5
15
8
Layer1
10
0.0000
20
0.0000
30
0.0
0
SEQEND
5
16
8
Layer1
0
POLYLINE
5
17
8
Layer1
66
1
10
0.0
20
0.0
30
0.0
70
1
0
VERTEX
5
18
8
Layer1
10
38.0000
20
44.0000
30
0.0
0
VERTEX
5
19
8
Layer1
10
38.8000
20
44.0000
30
0.0
0
VERTEX
5
1a
8
Layer1
10
38.8000
20
47.5000
30
0.0
0
VERTEX
5
1b
8
Layer1
10
38.0000
20
47.5000
30
0.0
0
VERTEX
5
1c
8
Layer1
10
38.0000
20
52.5000
30
0.0
0
VERTEX
5
1d
8
Layer1
10
38.8000
20
52.5000
30
0.0
0
VERTEX
5
1e
8
Layer1
10
38.8000
20
56.0000
30
0.0
0
VERTEX
5
1f
8
Layer1
10
38.0000
20
56.0000
30
0.0
0
VERTEX
5
20
8
Layer1
10
38.0000
20
57.0000
30
0.0
0
VERTEX
5
21
8
Layer1
10
24.0000
20
57.0000
30
0.0
0
VERTEX
5
22
8
Layer1
10
24.0000
20
56.0000
30
0.0
0
VERTEX
5
23
8
Layer1
10
23.2000
20
56.0000
30
0.0
0
VERTEX
5
24
8
Layer1
10
23.2000
20
52.5000
30
0.0
0
VERTEX
5
25
8
Layer1
10
24.0000
20
52.5000
30
0.0
0
VERTEX
5
26
8
Layer1
10
24.0000
20
47.5000
30
0.0
0
VERTEX
5
27
8
Layer1
10
23.2000
20
47.5000
30
0.0
0
VERTEX
5
28
8
Layer1
10
23.2000
20
44.0000
30
0.0
0
VERTEX
5
29
8
Layer1
10
24.0000
20
44.0000
30
0.0
0
VERTEX
5
2a
8
Layer1
10
24.0000
20
43.0000
30
0.0
0
VERTEX
5
2b
8
Layer1
10
38.0000
20
43.0000
30
0.0
0
VERTEX
5
2c
8
Layer1
10
38.0000
20
44.0000
30
0.0
0
SEQEND
5
2d
8
Layer1
0
POLYLINE
5
2e
8
Layer1
66
1
10
0.0
20
0.0
30
0.0
70
1
0
VERTEX
5
2f
8
Layer1
10
57.0000
20
44.0000
30
0.0
0
VERTEX
5
30
8
Layer1
10
57.8000
20
44.0000
30
0.0
0
VERTEX
5
31
8
Layer1
10
57.8000
20
47.5000
30
0.0
0
VERTEX
5
32
8
Layer1
10
57.0000
20
47.5000
30
0.0
0
VERTEX
5
33
8
Layer1
10
57.0000
20
52.5000
30
0.0
0
VERTEX
5
34
8
Layer1
10
57.8000
20
52.5000
30
0.0
0
VERTEX
5
35
8
Layer1
10
57.8000
20
56.0000
30
0.0
0
VERTEX
5
36
8
Layer1
10
57.0000
20
56.0000
30
0.0
0
VERTEX
5
37
8
Layer1
10
57.0000
20
57.0000
30
0.0
0
VERTEX
5
38
8
Layer1
10
43.0000
20
57.0000
30
0.0
0
VERTEX
5
39
8
Layer1
10
43.0000
20
56.0000
30
0.0
0
VERTEX
5
3a
8
Layer1
10
42.2000
20
56.0000
30
0.0
0
VERTEX
5
3b
8
Layer1
10
42.2000
20
52.5000
30
0.0
0
VERTEX
5
3c
8
Layer1
10
43.0000
20
52.5000
30
0.0
0
VERTEX
5
3d
8
Layer1
10
43.0000
20
47.5000
30
0.0
0
VERTEX
5
3e
8
Layer1
10
42.2000
20
47.5000
30
0.0
0
VERTEX
5
3f
8
Layer1
10
42.2000
20
44.0000
30
0.0
0
VERTEX
5
40
8
Layer1
10
43.0000
20
44.0000
30
0.0
0
VERTEX
5
41
8
Layer1
10
43.0000
20
43.0000
30
0.0
0
VERTEX
5
42
8
Layer1
10
57.0000
20
43.0000
30
0.0
0
VERTEX
5
43
8
Layer1
10
57.0000
20
44.0000
30
0.0
0
SEQEND
5
44
8
Layer1
0
POLYLINE
5
45
8
Layer1
66
1
10
0.0
20
0.0
30
0.0
70
1
0
VERTEX
5
46
8
Layer1
10
76.0000
20
44.0000
30
0.0
0
VERTEX
5
47
8
Layer1
10
76.8000
20
44.0000
30
0.0
0
VERTEX
5
48
8
Layer1
10
76.8000
20
47.5000
30
0.0
0
VERTEX
5
49
8
Layer1
10
76.0000
20
47.5000
30
0.0
0
VERTEX
5
4a
8
Layer1
10
76.0000
20
52.5000
30
0.0
0
VERTEX
5
4b
8
Layer1
10
76.8000
20
52.5000
30
0.0
0
VERTEX
5
4c
8
Layer1
10
76.8000
20
56.0000
30
0.0
0
VERTEX
5
4d
8
Layer1
10
76.0000
20
56.0000
30
0.0
0
VERTEX
5
4e
8
Layer1
10
76.0000
20
57.0000
30
0.0
0
VERTEX
5
4f
8
Layer1
10
62.0000
20
57.0000
30
0.0
0
VERTEX
5
50
8
Layer1
10
62.0000
20
56.0000
30
0.0
0
VERTEX
5
51
8
Layer1
10
61.2000
20
56.0000
30
0.0
0
VERTEX
5
52
8
Layer1
10
61.2000
20
52.5000
30
0.0
0
VERTEX
5
53
8
Layer1
10
62.0000
20
52.5000
30
0.0
0
VERTEX
5
54
8
Layer1
10
62.0000
20
47.5000
30
0.0
0
VERTEX
5
55
8
Layer1
10
61.2000
20
47.5000
30
0.0
0
VERTEX
5
56
8
Layer1
10
61.2000
20
44.0000
30
0.0
0
VERTEX
5
57
8
Layer1
10
62.0000
20
44.0000
30
0.0
0
VERTEX
5
58
8
Layer1
10
62.0000
20
43.0000
30
0.0
0
VERTEX
5
59
8
Layer1
10
76.0000
20
43.0000
30
0.0
0
VERTEX
5
5a
8
Layer1
10
76.0000
20
44.0000
30
0.0
0
SEQEND
5
5b
8
Layer1
0
POLYLINE
5
5c
8
Layer1
66
1
10
0.0
20
0.0
30
0.0
70
1
0
VERTEX
5
5d
8
Layer1
10
133.0000
20
44.0000
30
0.0
0
VERTEX
5
5e
8
Layer1
10
133.8000
20
44.0000
30
0.0
0
VERTEX
5
5f
8
Layer1
10
133.8000
20
47.5000
30
0.0
0
VERTEX
5
60
8
Layer1
10
133.0000
20
47.5000
30
0.0
0
VERTEX
5
61
8
Layer1
10
133.0000
20
52.5000
30
0.0
0
VERTEX
5
62
8
Layer1
10
133.8000
20
52.5000
30
0.0
0
VERTEX
5
63
8
Layer1
10
133.8000
20
56.0000
30
0.0
0
VERTEX
5
64
8
Layer1
10
133.0000
20
56.0000
30
0.0
0
VERTEX
5
65
8
Layer1
10
133.0000
20
57.0000
30
0.0
0
VERTEX
5
66
8
Layer1
10
119.0000
20
57.0000
30
0.0
0
VERTEX
5
67
8
Layer1
10
119.0000
20
56.0000
30
0.0
0
VERTEX
5
68
8
Layer1
10
118.2000
20
56.0000
30
0.0
0
VERTEX
5
69
8
Layer1
10
118.2000
20
52.5000
30
0.0
0
VERTEX
5
6a
8
Layer1
10
119.0000
20
52.5000
30
0.0
0
VERTEX
5
6b
8
Layer1
10
119.0000
20
47.5000
30
0.0
0
VERTEX
5
6c
8
Layer1
10
118.2000
20
47.5000
30
0.0
0
VERTEX
5
6d
8
Layer1
10
118.2000
20
44.0000
30
0.0
0
VERTEX
5
6e
8
Layer1
10
119.0000
20
44.0000
30
0.0
0
VERTEX
5
6f
8
Layer1
10
119.0000
20
43.0000
30
0.0
0
VERTEX
5
70
8
Layer1
10
133.0000
20
43.0000
30
0.0
0
VERTEX
5
71
8
Layer1
10
133.0000
20
44.0000
30
0.0
0
SEQEND
5
72
8
Layer1
0
POLYLINE
5
73
8
Layer1
66
1
10
0.0
20
0.0
30
0.0
70
1
0
VERTEX
5
74
8
Layer1
10
152.0000
20
44.0000
30
0.0
0
VERTEX
5
75
8
Layer1
10
152.8000
20
44.0000
30
0.0
0
VERTEX
5
76
8
Layer1
10
152.8000
20
47.5000
30
0.0
0
VERTEX
5
77
8
Layer1
10
152.0000
20
47.5000
30
0.0
0
VERTEX
5
78
8
Layer1
10
152.0000
20
52.5000
30
0.0
0
VERTEX
5
79
8
Layer1
10
152.8000
20
52.5000
30
0.0
0
VERTEX
5
7a
8
Layer1
10
152.8000
20
56.0000
30
0.0
0
VERTEX
5
7b
8
Layer1
10
152.0000
20
56.0000
30
0.0
0
VERTEX
5
7c
8
Layer1
10
152.0000
20
57.0000
30
0.0
0
VERTEX
5
7d
8
Layer1
10
138.0000
20
57.0000
30
0.0
0
VERTEX
5
7e
8
Layer1
10
138.0000
20
56.0000
30
0.0
0
VERTEX
5
7f
8
Layer1
10
137.2000
20
56.0000
30
0.0
0
VERTEX
5
80
8
Layer1
10
137.2000
20
52.5000
30
0.0
0
VERTEX
5
81
8
Layer1
10
138.0000
20
52.5000
30
0.0
0
VERTEX
5
82
8
Layer1
10
138.0000
20
47.5000
30
0.0
0
VERTEX
5
83
8
Layer1
10
137.2000
20
47.5000
30
0.0
0
VERTEX
5
84
8
Layer1
10
137.2000
20
44.0000
30
0.0
0
VERTEX
5
85
8
Layer1
10
138.0000
20
44.0000
30
0.0
0
VERTEX
5
86
8
Layer1
10
138.0000
20
43.0000
30
0.0
0
VERTEX
5
87
8
Layer1
10
152.0000
20
43.0000
30
0.0
0
VERTEX
5
88
8
Layer1
10
152.0000
20
44.0000
30
0.0
0
SEQEND
5
89
8
Layer1
0
POLYLINE
5
8a
8
Layer1
66
1
10
0.0
20
0.0
30
0.0
70
1
0
VERTEX
5
8b
8
Layer1
10
171.0000
20
44.0000
30
0.0
0
VERTEX
5
8c
8
Layer1
10
171.8000
20
44.0000
30
0.0
0
VERTEX
5
8d
8
Layer1
10
171.8000
20
47.5000
30
0.0
0
VERTEX
5
8e
8
Layer1
10
171.0000
20
47.5000
30
0.0
0
VERTEX
5
8f
8
Layer1
10
171.0000
20
52.5000
30
0.0
0
VERTEX
5
90
8
Layer1
10
171.8000
20
52.5000
30
0.0
0
VERTEX
5
91
8
Layer1
10
171.8000
20
56.0000
30
0.0
0
VERTEX
5
92
8
Layer1
10
171.0000
20
56.0000
30
0.0
0
VERTEX
5
93
8
Layer1
10
171.0000
20
57.0000
30
0.0
0
VERTEX
5
94
8
Layer1
10
157.0000
20
57.0000
30
0.0
0
VERTEX
5
95
8
Layer1
10
157.0000
20
56.0000
30
0.0
0
VERTEX
5
96
8
Layer1
10
156.2000
20
56.0000
30
0.0
0
VERTEX
5
97
8
Layer1
10
156.2000
20
52.5000
30
0.0
0
VERTEX
5
98
8
Layer1
10
157.0000
20
52.5000
30
0.0
0
VERTEX
5
99
8
Layer1
10
157.0000
20
47.5000
30
0.0
0
VERTEX
5
9a
8
Layer1
10
156.2000
20
47.5000
30
0.0
0
VERTEX
5
9b
8
Layer1
10
156.2000
20
44.0000
30
0.0
0
VERTEX
5
9c
8
Layer1
10
157.0000
20
44.0000
30
0.0
0
VERTEX
5
9d
8
Layer1
10
157.0000
20
43.0000
30
0.0
0
VERTEX
5
9e
8
Layer1
10
171.0000
20
43.0000
30
0.0
0
VERTEX
5
9f
8
Layer1
10
171.0000
20
44.0000
30
0.0
0
SEQEND
5
a0
8
Layer1
0
POLYLINE
5
a1
8
Layer1
66
1
10
0.0
20
0.0
30
0.0
70
1
0
VERTEX
5
a2
8
Layer1
10
19.0000
20
25.0000
30
0.0
0
VERTEX
5
a3
8
Layer1
10
19.8000
20
25.0000
30
0.0
0
VERTEX
5
a4
8
Layer1
10
19.8000
20
28.5000
30
0.0
0
VERTEX
5
a5
8
Layer1
10
19.0000
20
28.5000
30
0.0
0
VERTEX
5
a6
8
Layer1
10
19.0000
20
33.5000
30
0.0
0
VERTEX
5
a7
8
Layer1
10
19.8000
20
33.5000
30
0.0
0
VERTEX
5
a8
8
Layer1
10
19.8000
20
37.0000
30
0.0
0
VERTEX
5
a9
8
Layer1
10
19.0000
20
37.0000
30
0.0
0
VERTEX
5
aa
8
Layer1
10
19.0000
20
38.0000
30
0.0
0
VERTEX
5
ab
8
Layer1
10
5.0000
20
38.0000
30
0.0
0
VERTEX
5
ac
8
Layer1
10
5.0000
20
37.0000
30
0.0
0
VERTEX
5
ad
8
Layer1
10
4.2000
20
37.0000
30
0.0
0
VERTEX
5
ae
8
Layer1
10
4.2000
20
33.5000
30
0.0
0
VERTEX
5
af
8
Layer1
10
5.0000
20
33.5000
30
0.0
0
VERTEX
5
b0
8
Layer1
10
5.0000
20
28.5000
30
0.0
0
VERTEX
5
b1
8
Layer1
10
4.2000
20
28.5000
30
0.0
0
VERTEX
5
b2
8
Layer1
10
4.2000
20
25.0000
30
0.0
0
VERTEX
5
b3
8
Layer1
10
5.0000
20
25.0000
30
0.0
0
VERTEX
5
b4
8
Layer1
10
5.0000
20
24.0000
30
0.0
0
VERTEX
5
b5
8
Layer1
10
19.0000
20
24.0000
30
0.0
0
VERTEX
5
b6
8
Layer1
10
19.0000
20
25.0000
30
0.0
0
SEQEND
5
b7
8
Layer1
0
POLYLINE
5
b8
8
Layer1
66
1
10
0.0
20
0.0
30
0.0
70
1
0
VERTEX
5
b9
8
Layer1
10
190.0000
20
25.0000
30
0.0
0
VERTEX
5
ba
8
Layer1
10
190.8000
20
25.0000
30
0.0
0
VERTEX
5
bb
8
Layer1
10
190.8000
20
28.5000
30
0.0
0
VERTEX
5
bc
8
Layer1
10
190.0000
20
28.5000
30
0.0
0
VERTEX
5
bd
8
Layer1
10
190.0000
20
33.5000
30
0.0
0
VERTEX
5
be
8
Layer1
10
190.8000
20
33.5000
30
0.0
0
VERTEX
5
bf
8
Layer1
10
190.8000
20
37.0000
30
0.0
0
VERTEX
5
c0
8
Layer1
10
190.0000
20
37.0000
30
0.0
0
VERTEX
5
c1
8
Layer1
10
190.0000
20
38.0000
30
0.0
0
VERTEX
5
c2
8
Layer1
10
176.0000
20
38.0000
30
0.0
0
VERTEX
5
c3
8
Layer1
10
176.0000
20
37.0000
30
0.0
0
VERTEX
5
c4
8
Layer1
10
175.2000
20
37.0000
30
0.0
0
VERTEX
5
c5
8
Layer1
10
175.2000
20
33.5000
30
0.0
0
VERTEX
5
c6
8
Layer1
10
176.0000
20
33.5000
30
0.0
0
VERTEX
5
c7
8
Layer1
10
176.0000
20
28.5000
30
0.0
0
VERTEX
5
c8
8
Layer1
10
175.2000
20
28.5000
30
0.0
0
VERTEX
5
c9
8
Layer1
10
175.2000
20
25.0000
30
0.0
0
VERTEX
5
ca
8
Layer1
10
176.0000
20
25.0000
30
0.0
0
VERTEX
5
cb
8
Layer1
10
176.0000
20
24.0000
30
0.0
0
VERTEX
5
cc
8
Layer1
10
190.0000
20
24.0000
30
0.0
0
VERTEX
5
cd
8
Layer1
10
190.0000
20
25.0000
30
0.0
0
SEQEND
5
ce
8
Layer1
0
POLYLINE
5
cf
8
Layer1
66
1
10
0.0
20
0.0
30
0.0
70
1
0
VERTEX
5
d0
8
Layer1
10
80.7500
20
6.0000
30
0.0
0
VERTEX
5
d1
8
Layer1
10
81.5500
20
6.0000
30
0.0
0
VERTEX
5
d2
8
Layer1
10
81.5500
20
9.5000
30
0.0
0
VERTEX
5
d3
8
Layer1
10
80.7500
20
9.5000
30
0.0
0
VERTEX
5
d4
8
Layer1
10
80.7500
20
14.5000
30
0.0
0
VERTEX
5
d5
8
Layer1
10
81.5500
20
14.5000
30
0.0
0
VERTEX
5
d6
8
Layer1
10
81.5500
20
18.0000
30
0.0
0
VERTEX
5
d7
8
Layer1
10
80.7500
20
18.0000
30
0.0
0
VERTEX
5
d8
8
Layer1
10
80.7500
20
19.0000
30
0.0
0
VERTEX
5
d9
8
Layer1
10
66.7500
20
19.0000
30
0.0
0
VERTEX
5
da
8
Layer1
10
66.7500
20
18.0000
30
0.0
0
VERTEX
5
db
8
Layer1
10
65.9500
20
18.0000
30
0.0
0
VERTEX
5
dc
8
Layer1
10
65.9500
20
14.5000
30
0.0
0
VERTEX
5
dd
8
Layer1
10
66.7500
20
14.5000
30
0.0
0
VERTEX
5
de
8
Layer1
10
66.7500
20
9.5000
30
0.0
0
VERTEX
5
df
8
Layer1
10
65.9500
20
9.5000
30
0.0
0
VERTEX
5
e0
8
Layer1
10
65.9500
20
6.0000
30
0.0
0
VERTEX
5
e1
8
Layer1
10
66.7500
20
6.0000
30
0.0
0
VERTEX
5
e2
8
Layer1
10
66.7500
20
5.0000
30
0.0
0
VERTEX
5
e3
8
Layer1
10
80.7500
20
5.0000
30
0.0
0
VERTEX
5
e4
8
Layer1
10
80.7500
20
6.0000
30
0.0
0
SEQEND
5
e5
8
Layer1
0
POLYLINE
5
e6
8
Layer1
66
1
10
0.0
20
0.0
30
0.0
70
1
0
VERTEX
5
e7
8
Layer1
10
128.2500
20
6.0000
30
0.0
0
VERTEX
5
e8
8
Layer1
10
129.0500
20
6.0000
30
0.0
0
VERTEX
5
e9
8
Layer1
10
129.0500
20
9.5000
30
0.0
0
VERTEX
5
ea
8
Layer1
10
128.2500
20
9.5000
30
0.0
0
VERTEX
5
eb
8
Layer1
10
128.2500
20
14.5000
30
0.0
0
VERTEX
5
ec
8
Layer1
10
129.0500
20
14.5000
30
0.0
0
VERTEX
5
ed
8
Layer1
10
129.0500
20
18.0000
30
0.0
0
VERTEX
5
ee
8
Layer1
10
128.2500
20
18.0000
30
0.0
0
VERTEX
5
ef
8
Layer1
10
128.2500
20
19.0000
30
0.0
0
VERTEX
5
f0
8
Layer1
10
114.2500
20
19.0000
30
0.0
0
VERTEX
5
f1
8
Layer1
10
114.2500
20
18.0000
30
0.0
0
VERTEX
5
f2
8
Layer1
10
113.4500
20
18.0000
30
0.0
0
VERTEX
5
f3
8
Layer1
10
113.4500
20
14.5000
30
0.0
0
VERTEX
5
f4
8
Layer1
10
114.2500
20
14.5000
30
0.0
0
VERTEX
5
f5
8
Layer1
10
114.2500
20
9.5000
30
0.0
0
VERTEX
5
f6
8
Layer1
10
113.4500
20
9.5000
30
0.0
0
VERTEX
5
f7
8
Layer1
10
113.4500
20
6.0000
30
0.0
0
VERTEX
5
f8
8
Layer1
10
114.2500
20
6.0000
30
0.0
0
VERTEX
5
f9
8
Layer1
10
114.2500
20
5.0000
30
0.0
0
VERTEX
5
fa
8
Layer1
10
128.2500
20
5.0000
30
0.0
0
VERTEX
5
fb
8
Layer1
10
128.2500
20
6.0000
30
0.0
0
SEQEND
5
fc
8
Layer1
0
ENDSEC
0
EOF
