<svg style="background-color:#dddddd" width="390" height="124"><path stroke="black" fill="white" fill-opacity="1.0" d="M 0, 124 L 390, 124 L 390, 0 L 0, 0 Z"/><path stroke="black" fill="white" fill-opacity="0.0" d="M 76, 36 L 77.6, 36 L 77.6, 29 L 76, 29 L 76, 19 L 77.6, 19 L 77.6, 12 L 76, 12 L 76, 10 L 48, 10 L 48, 12 L 46.4, 12 L 46.4, 19 L 48, 19 L 48, 29 L 46.4, 29 L 46.4, 36 L 48, 36 L 48, 38 L 76, 38 Z"/><path stroke="black" fill="white" fill-opacity="0.0" d="M 114, 36 L 115.6, 36 L 115.6, 29 L 114, 29 L 114, 19 L 115.6, 19 L 115.6, 12 L 114, 12 L 114, 10 L 86, 10 L 86, 12 L 84.4, 12 L 84.4, 19 L 86, 19 L 86, 29 L 84.4, 29 L 84.4, 36 L 86, 36 L 86, 38 L 114, 38 Z"/><path stroke="black" fill="white" fill-opacity="0.0" d="M 152, 36 L 153.6, 36 L 153.6, 29 L 152, 29 L 152, 19 L 153.6, 19 L 153.6, 12 L 152, 12 L 152, 10 L 124, 10 L 124, 12 L 122.4, 12 L 122.4, 19 L 124, 19 L 124, 29 L 122.4, 29 L 122.4, 36 L 124, 36 L 124, 38 L 152, 38 Z"/><path stroke="black" fill="white" fill-opacity="0.0" d="M 266, 36 L 267.6, 36 L 267.6, 29 L 266, 29 L 266, 19 L 267.6, 19 L 267.6, 12 L 266, 12 L 266, 10 L 238, 10 L 238, 12 L 236.4, 12 L 236.4, 19 L 238, 19 L 238, 29 L 236.4, 29 L 236.4, 36 L 238, 36 L 238, 38 L 266, 38 Z"/><path stroke="black" fill="white" fill-opacity="0.0" d="M 304, 36 L 305.6, 36 L 305.6, 29 L 304, 29 L 304, 19 L 305.6, 19 L 305.6, 12 L 304, 12 L 304, 10 L 276, 10 L 276, 12 L 274.4, 12 L 274.4, 19 L 276, 19 L 276, 29 L 274.4, 29 L 274.4, 36 L 276, 36 L 276, 38 L 304, 38 Z"/><path stroke="black" fill="white" fill-opacity="0.0" d="M 342, 36 L 343.6, 36 L 343.6, 29 L 342, 29 L 342, 19 L 343.6, 19 L 343.6, 12 L 342, 12 L 342, 10 L 314, 10 L 314, 12 L 312.4, 12 L 312.4, 19 L 314, 19 L 314, 29 L 312.4, 29 L 312.4, 36 L 314, 36 L 314, 38 L 342, 38 Z"/><path stroke="black" fill="white" fill-opacity="0.0" d="M 38, 74 L 39.6, 74 L 39.6, 67 L 38, 67 L 38, 57 L 39.6, 57 L 39.6, 50 L 38, 50 L 38, 48 L 10, 48 L 10, 50 L 8.4, 50 L 8.4, 57 L 10, 57 L 10, 67 L 8.4, 67 L 8.4, 74 L 10, 74 L 10, 76 L 38, 76 Z"/><path stroke="black" fill="white" fill-opacity="0.0" d="M 380, 74 L 381.6, 74 L 381.6, 67 L 380, 67 L 380, 57 L 381.6, 57 L 381.6, 50 L 380, 50 L 380, 48 L 352, 48 L 352, 50 L 350.4, 50 L 350.4, 57 L 352, 57 L 352, 67 L 350.4, 67 L 350.4, 74 L 352, 74 L 352, 76 L 380, 76 Z"/><path stroke="black" fill="white" fill-opacity="0.0" d="M 161.5, 112 L 163.1, 112 L 163.1, 105 L 161.5, 105 L 161.5, 95 L 163.1, 95 L 163.1, 88 L 161.5, 88 L 161.5, 86 L 133.5, 86 L 133.5, 88 L 131.9, 88 L 131.9, 95 L 133.5, 95 L 133.5, 105 L 131.9, 105 L 131.9, 112 L 133.5, 112 L 133.5, 114 L 161.5, 114 Z"/><path stroke="black" fill="white" fill-opacity="0.0" d="M 256.5, 112 L 258.1, 112 L 258.1, 105 L 256.5, 105 L 256.5, 95 L 258.1, 95 L 258.1, 88 L 256.5, 88 L 256.5, 86 L 228.5, 86 L 228.5, 88 L 226.9, 88 L 226.9, 95 L 228.5, 95 L 228.5, 105 L 226.9, 105 L 226.9, 112 L 228.5, 112 L 228.5, 114 L 256.5, 114 Z"/></svg>